<svg xmlns="http://www.w3.org/2000/svg" xmlns:xlink="http://www.w3.org/1999/xlink" width="500" zoomAndPan="magnify" viewBox="0 0 375 374.999991" height="500" preserveAspectRatio="xMidYMid meet" version="1.0"><defs><clipPath id="c1ad88d89f"><path d="M 36.492188 37.5 L 337.5 37.5 L 337.5 338.507812 L 36.492188 338.507812 Z M 36.492188 37.5 " clip-rule="nonzero"/></clipPath><clipPath id="1d9acf8392"><path d="M 186.996094 37.5 C 103.875 37.5 36.492188 104.882812 36.492188 188.003906 C 36.492188 271.125 103.875 338.507812 186.996094 338.507812 C 270.117188 338.507812 337.5 271.125 337.5 188.003906 C 337.5 104.882812 270.117188 37.5 186.996094 37.5 Z M 186.996094 37.5 " clip-rule="nonzero"/></clipPath><clipPath id="c92ae7d36a"><path d="M 188 61.464844 L 192 61.464844 L 192 96 L 188 96 Z M 188 61.464844 " clip-rule="nonzero"/></clipPath><clipPath id="71f158c501"><path d="M 188 280 L 192 280 L 192 314.214844 L 188 314.214844 Z M 188 280 " clip-rule="nonzero"/></clipPath><clipPath id="7db1539872"><path d="M 282 186 L 315.832031 186 L 315.832031 190 L 282 190 Z M 282 186 " clip-rule="nonzero"/></clipPath><clipPath id="81552bfb2c"><path d="M 63.082031 186 L 97 186 L 97 190 L 63.082031 190 Z M 63.082031 186 " clip-rule="nonzero"/></clipPath></defs><g clip-path="url(#c1ad88d89f)"><g clip-path="url(#1d9acf8392)"><path fill="#ffffff" d="M 36.492188 37.5 L 337.5 37.5 L 337.5 338.507812 L 36.492188 338.507812 Z M 36.492188 37.5 " fill-opacity="1" fill-rule="nonzero"/></g></g><path fill="#77b0aa" d="M 139.558594 212.246094 C 139.15625 211.386719 138.75 210.527344 138.34375 209.664062 L 117.847656 218.777344 C 118.25 219.636719 118.605469 220.546875 119.011719 221.410156 Z M 139.558594 212.246094 " fill-opacity="1" fill-rule="nonzero"/><path fill="#77b0aa" d="M 137.128906 169.578125 C 137.433594 168.667969 137.789062 167.808594 138.144531 166.894531 L 117.238281 158.796875 C 116.882812 159.65625 116.53125 160.570312 116.175781 161.480469 Z M 137.128906 169.578125 " fill-opacity="1" fill-rule="nonzero"/><path fill="#77b0aa" d="M 165.375 138.550781 C 166.234375 138.144531 167.09375 137.792969 168.007812 137.386719 L 158.996094 116.785156 C 158.136719 117.140625 157.226562 117.546875 156.363281 117.949219 Z M 165.375 138.550781 " fill-opacity="1" fill-rule="nonzero"/><path fill="#77b0aa" d="M 211.738281 237.503906 C 210.878906 237.910156 210.015625 238.3125 209.105469 238.667969 L 218.117188 259.269531 C 218.976562 258.914062 219.886719 258.511719 220.746094 258.105469 Z M 211.738281 237.503906 " fill-opacity="1" fill-rule="nonzero"/><path fill="#77b0aa" d="M 170.234375 239.527344 C 169.324219 239.226562 168.460938 238.871094 167.550781 238.515625 L 159.402344 259.421875 C 160.261719 259.777344 161.171875 260.128906 162.085938 260.484375 Z M 170.234375 239.527344 " fill-opacity="1" fill-rule="nonzero"/><path fill="#77b0aa" d="M 239.929688 206.527344 C 239.628906 207.4375 239.273438 208.300781 238.917969 209.210938 L 259.824219 217.359375 C 260.175781 216.5 260.53125 215.589844 260.886719 214.675781 Z M 239.929688 206.527344 " fill-opacity="1" fill-rule="nonzero"/><path fill="#77b0aa" d="M 149.480469 226.21875 L 133.585938 242.058594 C 134.246094 242.71875 134.953125 243.425781 135.664062 244.085938 L 151.554688 228.242188 C 150.796875 227.582031 150.140625 226.925781 149.480469 226.21875 Z M 149.480469 226.21875 " fill-opacity="1" fill-rule="nonzero"/><path fill="#77b0aa" d="M 207.183594 136.679688 C 208.09375 136.980469 208.953125 137.335938 209.867188 137.742188 L 218.015625 116.835938 C 217.152344 116.484375 216.242188 116.128906 215.332031 115.773438 Z M 207.183594 136.679688 " fill-opacity="1" fill-rule="nonzero"/><path fill="#77b0aa" d="M 274.300781 152.570312 L 285.382812 147.660156 L 284.21875 145.03125 L 273.136719 149.941406 C 273.539062 150.800781 273.945312 151.660156 274.300781 152.570312 Z M 274.300781 152.570312 " fill-opacity="1" fill-rule="nonzero"/><path fill="#77b0aa" d="M 227.480469 226.320312 C 226.820312 226.976562 226.113281 227.683594 225.40625 228.292969 L 241.296875 244.136719 C 242.007812 243.476562 242.664062 242.820312 243.371094 242.160156 Z M 227.480469 226.320312 " fill-opacity="1" fill-rule="nonzero"/><path fill="#77b0aa" d="M 228.898438 151.253906 L 244.789062 135.414062 C 244.132812 134.703125 243.472656 134.046875 242.816406 133.335938 L 226.921875 149.179688 C 227.582031 149.839844 228.238281 150.546875 228.898438 151.253906 Z M 228.898438 151.253906 " fill-opacity="1" fill-rule="nonzero"/><path fill="#77b0aa" d="M 148.0625 151.355469 C 148.722656 150.648438 149.378906 149.941406 150.039062 149.28125 L 134.144531 133.4375 C 133.488281 134.097656 132.828125 134.804688 132.171875 135.515625 Z M 148.0625 151.355469 " fill-opacity="1" fill-rule="nonzero"/><path fill="#77b0aa" d="M 238.261719 165.429688 C 238.664062 166.289062 239.019531 167.199219 239.375 168.058594 L 259.925781 158.949219 C 259.570312 158.089844 259.164062 157.175781 258.761719 156.316406 Z M 238.261719 165.429688 " fill-opacity="1" fill-rule="nonzero"/><path fill="#77b0aa" d="M 122.402344 253.144531 L 96.992188 278.402344 L 99.015625 280.425781 L 124.425781 255.117188 C 123.769531 254.511719 123.058594 253.851562 122.402344 253.144531 Z M 122.402344 253.144531 " fill-opacity="1" fill-rule="nonzero"/><path fill="#77b0aa" d="M 153.734375 274.101562 L 148.925781 286.398438 L 151.605469 287.460938 L 156.363281 275.164062 C 155.503906 274.808594 154.59375 274.453125 153.734375 274.101562 Z M 153.734375 274.101562 " fill-opacity="1" fill-rule="nonzero"/><path fill="#77b0aa" d="M 252.484375 255.269531 L 277.792969 280.476562 L 279.816406 278.453125 L 254.507812 253.296875 C 253.902344 253.953125 253.191406 254.613281 252.484375 255.269531 Z M 252.484375 255.269531 " fill-opacity="1" fill-rule="nonzero"/><path fill="#77b0aa" d="M 274.5 223.027344 L 285.636719 227.382812 L 286.699219 224.699219 L 275.566406 220.398438 C 275.210938 221.257812 274.855469 222.167969 274.5 223.027344 Z M 274.5 223.027344 " fill-opacity="1" fill-rule="nonzero"/><path fill="#77b0aa" d="M 224.390625 273.695312 L 229.605469 285.589844 L 232.238281 284.425781 L 227.023438 272.53125 C 226.164062 272.886719 225.304688 273.289062 224.390625 273.695312 Z M 224.390625 273.695312 " fill-opacity="1" fill-rule="nonzero"/><path fill="#77b0aa" d="M 223.683594 102.109375 L 227.933594 91.125 L 225.253906 90.0625 L 221 101.09375 C 221.910156 101.398438 222.773438 101.753906 223.683594 102.109375 Z M 223.683594 102.109375 " fill-opacity="1" fill-rule="nonzero"/><path fill="#77b0aa" d="M 255.976562 124.328125 L 281.03125 99.375 L 279.007812 97.351562 L 254.003906 122.253906 C 254.660156 122.910156 255.316406 123.621094 255.976562 124.328125 Z M 255.976562 124.328125 " fill-opacity="1" fill-rule="nonzero"/><path fill="#77b0aa" d="M 152.71875 102.410156 L 147.660156 90.871094 L 145.027344 92.035156 L 150.089844 103.625 C 150.949219 103.171875 151.808594 102.765625 152.71875 102.410156 Z M 152.71875 102.410156 " fill-opacity="1" fill-rule="nonzero"/><path fill="#77b0aa" d="M 122.957031 122.355469 L 97.851562 97.351562 L 95.828125 99.375 L 120.984375 124.429688 C 121.640625 123.71875 122.300781 123.011719 122.957031 122.355469 Z M 122.957031 122.355469 " fill-opacity="1" fill-rule="nonzero"/><path fill="#77b0aa" d="M 102.558594 153.078125 L 91.777344 148.875 L 90.714844 151.558594 L 101.496094 155.761719 C 101.800781 154.847656 102.15625 153.9375 102.558594 153.078125 Z M 102.558594 153.078125 " fill-opacity="1" fill-rule="nonzero"/><path fill="#77b0aa" d="M 103.421875 225.15625 L 91.121094 230.621094 L 92.285156 233.253906 L 104.636719 227.785156 C 104.179688 226.875 103.824219 226.015625 103.421875 225.15625 Z M 103.421875 225.15625 " fill-opacity="1" fill-rule="nonzero"/><g clip-path="url(#c92ae7d36a)"><path fill="#77b0aa" d="M 188.203125 61.464844 L 191.085938 61.464844 L 191.085938 95.171875 L 188.203125 95.171875 Z M 188.203125 61.464844 " fill-opacity="1" fill-rule="nonzero"/></g><path fill="#77b0aa" d="M 188.203125 110.964844 L 191.085938 110.964844 L 191.085938 133.335938 L 188.203125 133.335938 Z M 188.203125 110.964844 " fill-opacity="1" fill-rule="nonzero"/><g clip-path="url(#71f158c501)"><path fill="#77b0aa" d="M 188.152344 280.832031 L 191.035156 280.832031 L 191.035156 314.542969 L 188.152344 314.542969 Z M 188.152344 280.832031 " fill-opacity="1" fill-rule="nonzero"/></g><path fill="#77b0aa" d="M 188.152344 242.667969 L 191.035156 242.667969 L 191.035156 265.039062 L 188.152344 265.039062 Z M 188.152344 242.667969 " fill-opacity="1" fill-rule="nonzero"/><g clip-path="url(#7db1539872)"><path fill="#77b0aa" d="M 282.449219 186.585938 L 316.160156 186.585938 L 316.160156 189.46875 L 282.449219 189.46875 Z M 282.449219 186.585938 " fill-opacity="1" fill-rule="nonzero"/></g><path fill="#77b0aa" d="M 244.234375 186.585938 L 266.605469 186.585938 L 266.605469 189.46875 L 244.234375 189.46875 Z M 244.234375 186.585938 " fill-opacity="1" fill-rule="nonzero"/><g clip-path="url(#81552bfb2c)"><path fill="#77b0aa" d="M 63.082031 186.535156 L 96.789062 186.535156 L 96.789062 189.417969 L 63.082031 189.417969 Z M 63.082031 186.535156 " fill-opacity="1" fill-rule="nonzero"/></g><path fill="#77b0aa" d="M 112.632812 186.585938 L 135.003906 186.585938 L 135.003906 189.46875 L 112.632812 189.46875 Z M 112.632812 186.585938 " fill-opacity="1" fill-rule="nonzero"/></svg>