<svg xmlns="http://www.w3.org/2000/svg" xmlns:xlink="http://www.w3.org/1999/xlink" width="500" zoomAndPan="magnify" viewBox="0 0 375 374.999991" height="500" preserveAspectRatio="xMidYMid meet" version="1.0"><defs><clipPath id="b67bb59a30"><path d="M 66.160156 88.222656 L 309.160156 88.222656 L 309.160156 199 L 66.160156 199 Z M 66.160156 88.222656 " clip-rule="nonzero"/></clipPath><clipPath id="026712a1a0"><path d="M 66.160156 176 L 309.160156 176 L 309.160156 286.972656 L 66.160156 286.972656 Z M 66.160156 176 " clip-rule="nonzero"/></clipPath></defs><g clip-path="url(#b67bb59a30)"><path fill="#000000" d="M 298.117188 198.640625 C 297.03125 198.636719 295.949219 198.582031 294.867188 198.476562 C 293.789062 198.371094 292.71875 198.210938 291.652344 197.996094 C 290.589844 197.785156 289.539062 197.519531 288.5 197.207031 C 287.460938 196.890625 286.441406 196.523438 285.441406 196.109375 C 284.4375 195.691406 283.457031 195.230469 282.5 194.71875 C 281.542969 194.207031 280.617188 193.648438 279.714844 193.046875 C 278.8125 192.445312 277.941406 191.796875 277.101562 191.109375 C 276.265625 190.421875 275.460938 189.695312 274.695312 188.925781 C 273.925781 188.160156 273.199219 187.359375 272.511719 186.519531 C 271.824219 185.679688 271.175781 184.8125 270.574219 183.910156 C 269.96875 183.007812 269.414062 182.078125 268.902344 181.121094 C 268.390625 180.167969 267.925781 179.1875 267.511719 178.183594 C 267.09375 177.183594 266.730469 176.164062 266.414062 175.125 C 266.097656 174.089844 265.832031 173.039062 265.621094 171.972656 C 265.410156 170.910156 265.25 169.839844 265.140625 168.761719 C 265.035156 167.679688 264.980469 166.597656 264.980469 165.515625 L 264.980469 121.347656 C 264.980469 120.621094 264.90625 119.90625 264.765625 119.195312 C 264.625 118.484375 264.414062 117.792969 264.136719 117.121094 C 263.859375 116.453125 263.519531 115.816406 263.117188 115.214844 C 262.714844 114.609375 262.257812 114.054688 261.742188 113.539062 C 261.230469 113.027344 260.671875 112.570312 260.070312 112.167969 C 259.46875 111.765625 258.832031 111.425781 258.160156 111.148438 C 257.492188 110.871094 256.800781 110.660156 256.089844 110.519531 C 255.378906 110.375 254.660156 110.304688 253.933594 110.304688 L 121.386719 110.304688 C 120.664062 110.304688 119.945312 110.375 119.234375 110.519531 C 118.523438 110.660156 117.832031 110.871094 117.160156 111.148438 C 116.492188 111.425781 115.855469 111.765625 115.25 112.167969 C 114.648438 112.570312 114.089844 113.027344 113.578125 113.539062 C 113.066406 114.054688 112.605469 114.609375 112.203125 115.214844 C 111.800781 115.816406 111.460938 116.453125 111.183594 117.121094 C 110.90625 117.792969 110.695312 118.484375 110.554688 119.195312 C 110.414062 119.90625 110.34375 120.621094 110.34375 121.347656 L 110.34375 165.515625 C 110.339844 166.597656 110.289062 167.679688 110.179688 168.761719 C 110.074219 169.839844 109.914062 170.910156 109.699219 171.972656 C 109.488281 173.039062 109.222656 174.089844 108.910156 175.125 C 108.59375 176.164062 108.226562 177.183594 107.8125 178.183594 C 107.394531 179.1875 106.933594 180.167969 106.421875 181.121094 C 105.910156 182.078125 105.351562 183.007812 104.746094 183.910156 C 104.144531 184.8125 103.5 185.679688 102.8125 186.519531 C 102.121094 187.359375 101.394531 188.160156 100.628906 188.925781 C 99.859375 189.695312 99.058594 190.421875 98.21875 191.109375 C 97.378906 191.796875 96.511719 192.445312 95.609375 193.046875 C 94.707031 193.648438 93.777344 194.207031 92.820312 194.71875 C 91.863281 195.230469 90.882812 195.691406 89.882812 196.109375 C 88.878906 196.523438 87.859375 196.890625 86.820312 197.207031 C 85.785156 197.519531 84.734375 197.785156 83.667969 197.996094 C 82.605469 198.210938 81.53125 198.371094 80.453125 198.476562 C 79.375 198.582031 78.292969 198.636719 77.207031 198.640625 C 76.480469 198.640625 75.761719 198.566406 75.050781 198.425781 C 74.339844 198.285156 73.648438 198.074219 72.980469 197.796875 C 72.308594 197.519531 71.671875 197.179688 71.070312 196.777344 C 70.464844 196.375 69.910156 195.917969 69.394531 195.40625 C 68.882812 194.890625 68.425781 194.335938 68.023438 193.730469 C 67.621094 193.128906 67.277344 192.492188 67 191.824219 C 66.722656 191.152344 66.515625 190.460938 66.371094 189.75 C 66.230469 189.039062 66.160156 188.324219 66.160156 187.597656 C 66.160156 186.871094 66.230469 186.15625 66.371094 185.441406 C 66.515625 184.730469 66.722656 184.042969 67 183.371094 C 67.277344 182.703125 67.621094 182.066406 68.023438 181.464844 C 68.425781 180.859375 68.882812 180.300781 69.394531 179.789062 C 69.910156 179.277344 70.464844 178.820312 71.070312 178.417969 C 71.671875 178.015625 72.308594 177.671875 72.980469 177.394531 C 73.648438 177.117188 74.339844 176.910156 75.050781 176.769531 C 75.761719 176.625 76.480469 176.554688 77.207031 176.554688 C 77.929688 176.554688 78.648438 176.484375 79.359375 176.34375 C 80.074219 176.203125 80.761719 175.992188 81.433594 175.714844 C 82.101562 175.4375 82.738281 175.097656 83.34375 174.695312 C 83.945312 174.292969 84.503906 173.835938 85.015625 173.320312 C 85.53125 172.808594 85.988281 172.25 86.390625 171.648438 C 86.792969 171.046875 87.132812 170.410156 87.410156 169.738281 C 87.6875 169.070312 87.898438 168.378906 88.039062 167.667969 C 88.179688 166.957031 88.25 166.238281 88.25 165.515625 L 88.25 121.347656 C 88.253906 120.261719 88.308594 119.179688 88.414062 118.101562 C 88.523438 117.023438 88.679688 115.953125 88.894531 114.886719 C 89.105469 113.824219 89.371094 112.773438 89.6875 111.734375 C 90 110.699219 90.367188 109.679688 90.78125 108.675781 C 91.199219 107.675781 91.664062 106.695312 92.175781 105.738281 C 92.6875 104.78125 93.242188 103.855469 93.847656 102.953125 C 94.449219 102.050781 95.09375 101.179688 95.785156 100.34375 C 96.472656 99.503906 97.199219 98.703125 97.96875 97.933594 C 98.734375 97.167969 99.535156 96.441406 100.375 95.753906 C 101.214844 95.0625 102.085938 94.417969 102.988281 93.816406 C 103.886719 93.214844 104.816406 92.65625 105.773438 92.144531 C 106.730469 91.632812 107.710938 91.167969 108.710938 90.753906 C 109.714844 90.335938 110.734375 89.972656 111.773438 89.65625 C 112.8125 89.339844 113.863281 89.078125 114.925781 88.863281 C 115.988281 88.652344 117.0625 88.492188 118.140625 88.386719 C 119.222656 88.277344 120.304688 88.222656 121.386719 88.222656 L 253.933594 88.222656 C 255.019531 88.222656 256.101562 88.277344 257.179688 88.386719 C 258.261719 88.492188 259.332031 88.652344 260.394531 88.863281 C 261.460938 89.078125 262.511719 89.339844 263.546875 89.65625 C 264.585938 89.972656 265.605469 90.335938 266.609375 90.753906 C 267.609375 91.167969 268.589844 91.632812 269.546875 92.144531 C 270.503906 92.65625 271.433594 93.214844 272.335938 93.816406 C 273.238281 94.417969 274.109375 95.0625 274.945312 95.753906 C 275.785156 96.441406 276.585938 97.167969 277.355469 97.933594 C 278.121094 98.703125 278.851562 99.503906 279.539062 100.34375 C 280.226562 101.179688 280.871094 102.050781 281.476562 102.953125 C 282.078125 103.855469 282.636719 104.78125 283.148438 105.738281 C 283.660156 106.695312 284.121094 107.675781 284.539062 108.675781 C 284.953125 109.679688 285.320312 110.699219 285.636719 111.734375 C 285.953125 112.773438 286.214844 113.824219 286.425781 114.886719 C 286.640625 115.953125 286.800781 117.023438 286.90625 118.101562 C 287.015625 119.179688 287.070312 120.261719 287.070312 121.347656 L 287.070312 165.515625 C 287.070312 166.238281 287.140625 166.957031 287.28125 167.667969 C 287.421875 168.378906 287.632812 169.070312 287.910156 169.738281 C 288.1875 170.410156 288.527344 171.046875 288.929688 171.648438 C 289.335938 172.25 289.792969 172.808594 290.304688 173.320312 C 290.816406 173.835938 291.375 174.292969 291.980469 174.695312 C 292.582031 175.097656 293.21875 175.4375 293.886719 175.714844 C 294.558594 175.992188 295.25 176.203125 295.960938 176.34375 C 296.671875 176.484375 297.390625 176.554688 298.117188 176.554688 C 298.839844 176.554688 299.558594 176.625 300.269531 176.769531 C 300.980469 176.910156 301.671875 177.117188 302.34375 177.394531 C 303.011719 177.671875 303.648438 178.015625 304.25 178.417969 C 304.855469 178.820312 305.414062 179.277344 305.925781 179.789062 C 306.4375 180.300781 306.894531 180.859375 307.300781 181.464844 C 307.703125 182.066406 308.042969 182.703125 308.320312 183.371094 C 308.597656 184.042969 308.808594 184.730469 308.949219 185.441406 C 309.089844 186.15625 309.160156 186.871094 309.160156 187.597656 C 309.160156 188.324219 309.089844 189.039062 308.949219 189.75 C 308.808594 190.460938 308.597656 191.152344 308.320312 191.824219 C 308.042969 192.492188 307.703125 193.128906 307.300781 193.730469 C 306.894531 194.335938 306.4375 194.890625 305.925781 195.40625 C 305.414062 195.917969 304.855469 196.375 304.25 196.777344 C 303.648438 197.179688 303.011719 197.519531 302.34375 197.796875 C 301.671875 198.074219 300.980469 198.285156 300.269531 198.425781 C 299.558594 198.566406 298.839844 198.640625 298.117188 198.640625 Z M 298.117188 198.640625 " fill-opacity="1" fill-rule="nonzero"/></g><g clip-path="url(#026712a1a0)"><path fill="#000000" d="M 253.933594 286.972656 L 121.386719 286.972656 C 120.304688 286.972656 119.222656 286.917969 118.140625 286.808594 C 117.0625 286.703125 115.988281 286.542969 114.925781 286.328125 C 113.863281 286.117188 112.8125 285.855469 111.773438 285.539062 C 110.734375 285.222656 109.714844 284.855469 108.710938 284.441406 C 107.710938 284.027344 106.730469 283.5625 105.773438 283.050781 C 104.816406 282.539062 103.886719 281.980469 102.988281 281.378906 C 102.085938 280.777344 101.214844 280.132812 100.375 279.441406 C 99.535156 278.753906 98.734375 278.027344 97.96875 277.261719 C 97.199219 276.492188 96.472656 275.691406 95.785156 274.851562 C 95.09375 274.015625 94.449219 273.144531 93.847656 272.242188 C 93.242188 271.339844 92.6875 270.410156 92.175781 269.457031 C 91.664062 268.5 91.199219 267.519531 90.78125 266.519531 C 90.367188 265.515625 90 264.496094 89.6875 263.460938 C 89.371094 262.421875 89.105469 261.371094 88.894531 260.308594 C 88.679688 259.242188 88.523438 258.171875 88.414062 257.09375 C 88.308594 256.011719 88.253906 254.933594 88.25 253.847656 L 88.25 209.679688 C 88.25 208.957031 88.179688 208.238281 88.039062 207.527344 C 87.898438 206.816406 87.6875 206.125 87.410156 205.457031 C 87.132812 204.785156 86.792969 204.148438 86.390625 203.546875 C 85.988281 202.945312 85.53125 202.386719 85.015625 201.875 C 84.503906 201.359375 83.945312 200.902344 83.34375 200.5 C 82.738281 200.097656 82.101562 199.757812 81.433594 199.480469 C 80.761719 199.203125 80.074219 198.992188 79.359375 198.851562 C 78.648438 198.710938 77.929688 198.640625 77.207031 198.640625 C 76.480469 198.640625 75.761719 198.566406 75.050781 198.425781 C 74.339844 198.285156 73.648438 198.074219 72.980469 197.796875 C 72.308594 197.519531 71.671875 197.179688 71.070312 196.777344 C 70.464844 196.375 69.910156 195.917969 69.394531 195.40625 C 68.882812 194.890625 68.425781 194.335938 68.023438 193.730469 C 67.621094 193.128906 67.277344 192.492188 67 191.824219 C 66.722656 191.152344 66.515625 190.460938 66.371094 189.75 C 66.230469 189.039062 66.160156 188.324219 66.160156 187.597656 C 66.160156 186.871094 66.230469 186.15625 66.371094 185.441406 C 66.515625 184.730469 66.722656 184.042969 67 183.371094 C 67.277344 182.703125 67.621094 182.066406 68.023438 181.464844 C 68.425781 180.859375 68.882812 180.300781 69.394531 179.789062 C 69.910156 179.277344 70.464844 178.820312 71.070312 178.417969 C 71.671875 178.015625 72.308594 177.671875 72.980469 177.394531 C 73.648438 177.117188 74.339844 176.910156 75.050781 176.769531 C 75.761719 176.625 76.480469 176.554688 77.207031 176.554688 C 78.292969 176.558594 79.375 176.609375 80.453125 176.71875 C 81.53125 176.824219 82.605469 176.984375 83.667969 177.199219 C 84.734375 177.410156 85.785156 177.675781 86.820312 177.988281 C 87.859375 178.304688 88.878906 178.671875 89.882812 179.085938 C 90.882812 179.5 91.863281 179.964844 92.820312 180.476562 C 93.777344 180.988281 94.707031 181.546875 95.609375 182.148438 C 96.511719 182.75 97.378906 183.398438 98.21875 184.085938 C 99.058594 184.773438 99.859375 185.5 100.628906 186.269531 C 101.394531 187.035156 102.121094 187.835938 102.8125 188.675781 C 103.5 189.515625 104.144531 190.382812 104.746094 191.285156 C 105.351562 192.1875 105.910156 193.117188 106.421875 194.074219 C 106.933594 195.027344 107.394531 196.007812 107.8125 197.007812 C 108.226562 198.011719 108.59375 199.03125 108.910156 200.070312 C 109.222656 201.105469 109.488281 202.15625 109.699219 203.21875 C 109.914062 204.285156 110.074219 205.355469 110.179688 206.433594 C 110.289062 207.515625 110.339844 208.597656 110.34375 209.679688 L 110.34375 253.847656 C 110.34375 254.570312 110.414062 255.289062 110.554688 256 C 110.695312 256.710938 110.90625 257.402344 111.183594 258.074219 C 111.460938 258.742188 111.800781 259.378906 112.203125 259.980469 C 112.605469 260.585938 113.066406 261.140625 113.578125 261.65625 C 114.089844 262.167969 114.648438 262.625 115.25 263.027344 C 115.855469 263.429688 116.492188 263.769531 117.160156 264.046875 C 117.832031 264.324219 118.523438 264.535156 119.234375 264.675781 C 119.945312 264.816406 120.664062 264.890625 121.386719 264.890625 L 253.933594 264.890625 C 254.660156 264.890625 255.378906 264.816406 256.089844 264.675781 C 256.800781 264.535156 257.492188 264.324219 258.160156 264.046875 C 258.832031 263.769531 259.46875 263.429688 260.070312 263.027344 C 260.671875 262.625 261.230469 262.167969 261.742188 261.65625 C 262.257812 261.140625 262.714844 260.585938 263.117188 259.980469 C 263.519531 259.378906 263.859375 258.742188 264.136719 258.074219 C 264.414062 257.402344 264.625 256.710938 264.765625 256 C 264.90625 255.289062 264.980469 254.570312 264.980469 253.847656 L 264.980469 209.679688 C 264.980469 208.597656 265.035156 207.515625 265.140625 206.433594 C 265.25 205.355469 265.410156 204.285156 265.621094 203.21875 C 265.832031 202.15625 266.097656 201.105469 266.414062 200.070312 C 266.730469 199.03125 267.09375 198.011719 267.511719 197.007812 C 267.925781 196.007812 268.390625 195.027344 268.902344 194.074219 C 269.414062 193.117188 269.96875 192.1875 270.574219 191.285156 C 271.175781 190.382812 271.824219 189.515625 272.511719 188.675781 C 273.199219 187.835938 273.925781 187.035156 274.695312 186.269531 C 275.460938 185.5 276.265625 184.773438 277.101562 184.085938 C 277.941406 183.398438 278.8125 182.75 279.714844 182.148438 C 280.617188 181.546875 281.542969 180.988281 282.5 180.476562 C 283.457031 179.964844 284.4375 179.5 285.441406 179.085938 C 286.441406 178.671875 287.460938 178.304688 288.5 177.988281 C 289.539062 177.675781 290.589844 177.410156 291.652344 177.199219 C 292.71875 176.984375 293.789062 176.824219 294.867188 176.71875 C 295.949219 176.609375 297.03125 176.558594 298.117188 176.554688 C 298.839844 176.554688 299.558594 176.625 300.269531 176.769531 C 300.980469 176.910156 301.671875 177.117188 302.34375 177.394531 C 303.011719 177.671875 303.648438 178.015625 304.25 178.417969 C 304.855469 178.820312 305.414062 179.277344 305.925781 179.789062 C 306.4375 180.300781 306.894531 180.859375 307.300781 181.464844 C 307.703125 182.066406 308.042969 182.703125 308.320312 183.371094 C 308.597656 184.042969 308.808594 184.730469 308.949219 185.441406 C 309.089844 186.15625 309.160156 186.871094 309.160156 187.597656 C 309.160156 188.324219 309.089844 189.039062 308.949219 189.75 C 308.808594 190.460938 308.597656 191.152344 308.320312 191.824219 C 308.042969 192.492188 307.703125 193.128906 307.300781 193.730469 C 306.894531 194.335938 306.4375 194.890625 305.925781 195.40625 C 305.414062 195.917969 304.855469 196.375 304.25 196.777344 C 303.648438 197.179688 303.011719 197.519531 302.34375 197.796875 C 301.671875 198.074219 300.980469 198.285156 300.269531 198.425781 C 299.558594 198.566406 298.839844 198.640625 298.117188 198.640625 C 297.390625 198.640625 296.671875 198.710938 295.960938 198.851562 C 295.25 198.992188 294.558594 199.203125 293.886719 199.480469 C 293.21875 199.757812 292.582031 200.097656 291.980469 200.5 C 291.375 200.902344 290.816406 201.359375 290.304688 201.875 C 289.792969 202.386719 289.335938 202.945312 288.929688 203.546875 C 288.527344 204.148438 288.1875 204.785156 287.910156 205.457031 C 287.632812 206.125 287.421875 206.816406 287.28125 207.527344 C 287.140625 208.238281 287.070312 208.957031 287.070312 209.679688 L 287.070312 253.847656 C 287.070312 254.933594 287.015625 256.011719 286.90625 257.09375 C 286.800781 258.171875 286.640625 259.242188 286.425781 260.308594 C 286.214844 261.371094 285.953125 262.421875 285.636719 263.460938 C 285.320312 264.496094 284.953125 265.515625 284.539062 266.519531 C 284.121094 267.519531 283.660156 268.5 283.148438 269.457031 C 282.636719 270.410156 282.078125 271.339844 281.476562 272.242188 C 280.871094 273.144531 280.226562 274.015625 279.539062 274.851562 C 278.851562 275.691406 278.121094 276.492188 277.355469 277.261719 C 276.585938 278.027344 275.785156 278.753906 274.945312 279.441406 C 274.109375 280.132812 273.238281 280.777344 272.335938 281.378906 C 271.433594 281.980469 270.503906 282.539062 269.546875 283.050781 C 268.589844 283.5625 267.609375 284.027344 266.609375 284.441406 C 265.605469 284.855469 264.585938 285.222656 263.546875 285.539062 C 262.511719 285.855469 261.460938 286.117188 260.394531 286.328125 C 259.332031 286.542969 258.261719 286.703125 257.179688 286.808594 C 256.101562 286.917969 255.019531 286.972656 253.933594 286.972656 Z M 253.933594 286.972656 " fill-opacity="1" fill-rule="nonzero"/></g><path fill="#000000" d="M 198.707031 242.804688 L 154.523438 242.804688 C 153.800781 242.804688 153.082031 242.734375 152.371094 242.59375 C 151.660156 242.453125 150.96875 242.242188 150.296875 241.964844 C 149.628906 241.6875 148.992188 241.347656 148.386719 240.945312 C 147.785156 240.542969 147.226562 240.085938 146.714844 239.570312 C 146.203125 239.058594 145.742188 238.5 145.339844 237.898438 C 144.9375 237.296875 144.597656 236.660156 144.320312 235.988281 C 144.042969 235.320312 143.832031 234.628906 143.691406 233.917969 C 143.550781 233.207031 143.480469 232.488281 143.480469 231.765625 L 143.480469 143.429688 C 143.480469 142.707031 143.550781 141.988281 143.691406 141.277344 C 143.832031 140.566406 144.042969 139.875 144.320312 139.207031 C 144.597656 138.535156 144.9375 137.898438 145.339844 137.296875 C 145.742188 136.695312 146.203125 136.136719 146.714844 135.625 C 147.226562 135.109375 147.785156 134.652344 148.386719 134.25 C 148.992188 133.847656 149.628906 133.507812 150.296875 133.230469 C 150.96875 132.953125 151.660156 132.742188 152.371094 132.601562 C 153.082031 132.460938 153.800781 132.390625 154.523438 132.390625 L 193.183594 132.390625 C 194.691406 132.390625 196.195312 132.492188 197.691406 132.699219 C 199.1875 132.90625 200.660156 133.210938 202.113281 133.617188 C 203.566406 134.023438 204.984375 134.527344 206.371094 135.128906 C 207.753906 135.730469 209.09375 136.421875 210.382812 137.207031 C 211.671875 137.992188 212.902344 138.859375 214.074219 139.808594 C 215.246094 140.761719 216.347656 141.789062 217.378906 142.890625 C 218.40625 143.992188 219.359375 145.160156 220.230469 146.390625 C 221.101562 147.625 221.886719 148.910156 222.582031 150.25 C 223.277344 151.589844 223.878906 152.96875 224.382812 154.390625 C 224.890625 155.8125 225.300781 157.261719 225.609375 158.738281 C 225.917969 160.214844 226.125 161.707031 226.230469 163.210938 C 226.335938 164.714844 226.335938 166.222656 226.234375 167.726562 C 226.132812 169.230469 225.933594 170.722656 225.628906 172.203125 C 225.324219 173.679688 224.917969 175.128906 224.414062 176.550781 C 223.914062 177.976562 223.316406 179.355469 222.625 180.699219 C 221.929688 182.039062 221.152344 183.328125 220.285156 184.5625 C 221.558594 185.65625 222.742188 186.84375 223.835938 188.117188 C 224.933594 189.394531 225.921875 190.746094 226.8125 192.171875 C 227.703125 193.597656 228.476562 195.085938 229.140625 196.628906 C 229.800781 198.175781 230.34375 199.761719 230.765625 201.386719 C 231.183594 203.015625 231.480469 204.664062 231.648438 206.335938 C 231.820312 208.007812 231.863281 209.683594 231.777344 211.363281 C 231.691406 213.042969 231.480469 214.703125 231.140625 216.351562 C 230.800781 217.996094 230.339844 219.609375 229.757812 221.183594 C 229.171875 222.761719 228.472656 224.285156 227.65625 225.753906 C 226.839844 227.222656 225.917969 228.621094 224.890625 229.953125 C 223.863281 231.28125 222.738281 232.523438 221.519531 233.683594 C 220.300781 234.839844 219.003906 235.902344 217.621094 236.863281 C 216.242188 237.820312 214.796875 238.671875 213.289062 239.414062 C 211.78125 240.15625 210.222656 240.777344 208.621094 241.28125 C 207.015625 241.785156 205.382812 242.164062 203.722656 242.421875 C 202.058594 242.675781 200.386719 242.804688 198.707031 242.804688 Z M 165.570312 220.722656 L 198.707031 220.722656 C 199.429688 220.722656 200.148438 220.652344 200.859375 220.511719 C 201.574219 220.367188 202.261719 220.160156 202.933594 219.882812 C 203.601562 219.605469 204.238281 219.265625 204.84375 218.863281 C 205.445312 218.457031 206.003906 218 206.515625 217.488281 C 207.03125 216.976562 207.488281 216.417969 207.890625 215.816406 C 208.292969 215.210938 208.632812 214.574219 208.910156 213.90625 C 209.1875 213.234375 209.398438 212.546875 209.539062 211.835938 C 209.679688 211.125 209.75 210.40625 209.75 209.679688 C 209.75 208.957031 209.679688 208.238281 209.539062 207.527344 C 209.398438 206.816406 209.1875 206.125 208.910156 205.457031 C 208.632812 204.785156 208.292969 204.148438 207.890625 203.546875 C 207.488281 202.945312 207.03125 202.386719 206.515625 201.875 C 206.003906 201.359375 205.445312 200.902344 204.84375 200.5 C 204.238281 200.097656 203.601562 199.757812 202.933594 199.480469 C 202.261719 199.203125 201.574219 198.992188 200.859375 198.851562 C 200.148438 198.710938 199.429688 198.640625 198.707031 198.640625 L 165.570312 198.640625 Z M 165.570312 176.554688 L 193.183594 176.554688 C 193.910156 176.554688 194.628906 176.484375 195.339844 176.34375 C 196.050781 176.203125 196.742188 175.992188 197.410156 175.714844 C 198.082031 175.4375 198.71875 175.097656 199.320312 174.695312 C 199.921875 174.292969 200.480469 173.835938 200.992188 173.320312 C 201.507812 172.808594 201.964844 172.25 202.367188 171.648438 C 202.769531 171.046875 203.109375 170.410156 203.386719 169.738281 C 203.664062 169.070312 203.875 168.378906 204.015625 167.667969 C 204.160156 166.957031 204.230469 166.238281 204.230469 165.515625 C 204.230469 164.789062 204.160156 164.070312 204.015625 163.359375 C 203.875 162.648438 203.664062 161.957031 203.386719 161.289062 C 203.109375 160.617188 202.769531 159.984375 202.367188 159.378906 C 201.964844 158.777344 201.507812 158.21875 200.992188 157.707031 C 200.480469 157.195312 199.921875 156.734375 199.320312 156.332031 C 198.71875 155.929688 198.082031 155.589844 197.410156 155.3125 C 196.742188 155.035156 196.050781 154.828125 195.339844 154.683594 C 194.628906 154.542969 193.910156 154.472656 193.183594 154.472656 L 165.570312 154.472656 Z M 165.570312 176.554688 " fill-opacity="1" fill-rule="nonzero"/></svg>