<svg xmlns="http://www.w3.org/2000/svg" xmlns:xlink="http://www.w3.org/1999/xlink" width="500" zoomAndPan="magnify" viewBox="0 0 375 374.999991" height="500" preserveAspectRatio="xMidYMid meet" version="1.0"><defs><clipPath id="6ee29f593f"><path d="M 81 60.644531 L 299 60.644531 L 299 314.144531 L 81 314.144531 Z M 81 60.644531 " clip-rule="nonzero"/></clipPath></defs><g clip-path="url(#6ee29f593f)"><path fill="#000000" d="M 298.21875 60.644531 L 81.496094 60.644531 L 101.191406 284.601562 L 189.855469 314.144531 L 278.523438 284.601562 Z M 255.496094 132.667969 L 190.246094 160.628906 L 253.179688 160.628906 L 245.960938 243.585938 L 190.542969 259.820312 L 134.785156 243.289062 L 131.171875 201.472656 L 158.765625 201.472656 L 160.570312 223.136719 L 190.257812 230.65625 L 221.128906 221.945312 L 223.210938 187.097656 L 129.238281 186.824219 L 127.195312 160.628906 L 194.125 132.667969 L 124.773438 132.667969 L 121.496094 105.902344 L 258.203125 105.902344 Z M 255.496094 132.667969 " fill-opacity="1" fill-rule="nonzero"/><path fill="#000000" d="M 298.21875 60.644531 L 81.496094 60.644531 L 101.191406 284.601562 L 189.855469 314.144531 L 278.523438 284.601562 Z M 255.496094 132.667969 L 190.246094 160.628906 L 253.179688 160.628906 L 245.960938 243.585938 L 190.542969 259.820312 L 134.785156 243.289062 L 131.171875 201.472656 L 158.765625 201.472656 L 160.570312 223.136719 L 190.257812 230.65625 L 221.128906 221.945312 L 223.210938 187.097656 L 129.238281 186.824219 L 127.195312 160.628906 L 194.125 132.667969 L 124.773438 132.667969 L 121.496094 105.902344 L 258.203125 105.902344 Z M 255.496094 132.667969 " fill-opacity="1" fill-rule="nonzero"/></g></svg>