<svg xmlns="http://www.w3.org/2000/svg" xmlns:xlink="http://www.w3.org/1999/xlink" width="500" zoomAndPan="magnify" viewBox="0 0 375 374.999991" height="500" preserveAspectRatio="xMidYMid meet" version="1.0"><defs><clipPath id="9fce4fbf83"><path d="M 203 123 L 286 123 L 286 315.679688 L 203 315.679688 Z M 203 123 " clip-rule="nonzero"/></clipPath><clipPath id="c1dabbeaa9"><path d="M 88 59.179688 L 220 59.179688 L 220 260 L 88 260 Z M 88 59.179688 " clip-rule="nonzero"/></clipPath><clipPath id="2f91fe6760"><path d="M 244 59.179688 L 286 59.179688 L 286 103 L 244 103 Z M 244 59.179688 " clip-rule="nonzero"/></clipPath><clipPath id="05a02540ff"><path d="M 203 123 L 286 123 L 286 315.679688 L 203 315.679688 Z M 203 123 " clip-rule="nonzero"/></clipPath><clipPath id="32e0884f80"><path d="M 88 59.179688 L 220 59.179688 L 220 260 L 88 260 Z M 88 59.179688 " clip-rule="nonzero"/></clipPath><clipPath id="ede87fbe49"><path d="M 244 59.179688 L 286 59.179688 L 286 103 L 244 103 Z M 244 59.179688 " clip-rule="nonzero"/></clipPath></defs><g clip-path="url(#9fce4fbf83)"><path fill="#000000" d="M 285.746094 123.945312 L 285.746094 123.933594 L 244.101562 123.933594 L 244.101562 206.730469 C 244.101562 243.21875 242.210938 257.109375 236.257812 269.089844 C 230.582031 280.804688 221.648438 288.4375 203.257812 297.144531 L 241.933594 315.679688 C 260.324219 306.421875 269.246094 297.980469 276.011719 284.632812 C 283.308594 270.75 285.746094 254.675781 285.746094 221.179688 Z M 285.746094 123.945312 " fill-opacity="1" fill-rule="nonzero"/></g><g clip-path="url(#c1dabbeaa9)"><path fill="#000000" d="M 219.480469 253.328125 L 219.480469 59.179688 L 177.832031 59.179688 L 177.832031 123.132812 C 171.613281 121.496094 166.472656 120.953125 159.71875 120.953125 C 116.171875 120.953125 88.046875 148.730469 88.046875 191.488281 C 88.046875 235.886719 114.546875 259.035156 165.394531 259.035156 C 182.429688 259.046875 198.117188 257.410156 219.480469 253.328125 Z M 130.503906 190.675781 C 130.503906 167.796875 142.664062 154.726562 163.769531 154.726562 L 163.726562 154.726562 C 164.027344 154.703125 164.316406 154.703125 164.605469 154.703125 C 169.339844 154.703125 173.878906 155.503906 177.824219 156.894531 L 177.824219 224.160156 C 171.882812 224.984375 168.085938 225.25 163.492188 225.25 C 142.140625 225.261719 130.503906 213.015625 130.503906 190.675781 Z M 130.503906 190.675781 " fill-opacity="1" fill-rule="nonzero"/></g><g clip-path="url(#2f91fe6760)"><path fill="#000000" d="M 244.101562 59.402344 L 285.746094 59.402344 L 285.746094 102.429688 L 244.101562 102.429688 Z M 244.101562 59.402344 " fill-opacity="1" fill-rule="nonzero"/></g><g clip-path="url(#05a02540ff)"><path fill="#000000" d="M 285.746094 123.945312 L 285.746094 123.933594 L 244.101562 123.933594 L 244.101562 206.730469 C 244.101562 243.21875 242.210938 257.109375 236.257812 269.089844 C 230.582031 280.804688 221.648438 288.4375 203.257812 297.144531 L 241.933594 315.679688 C 260.324219 306.421875 269.246094 297.980469 276.011719 284.632812 C 283.308594 270.75 285.746094 254.675781 285.746094 221.179688 Z M 285.746094 123.945312 " fill-opacity="1" fill-rule="nonzero"/></g><g clip-path="url(#32e0884f80)"><path fill="#000000" d="M 219.480469 253.328125 L 219.480469 59.179688 L 177.832031 59.179688 L 177.832031 123.132812 C 171.613281 121.496094 166.472656 120.953125 159.71875 120.953125 C 116.171875 120.953125 88.046875 148.730469 88.046875 191.488281 C 88.046875 235.886719 114.546875 259.035156 165.394531 259.035156 C 182.429688 259.046875 198.117188 257.410156 219.480469 253.328125 Z M 130.503906 190.675781 C 130.503906 167.796875 142.664062 154.726562 163.769531 154.726562 L 163.726562 154.726562 C 164.027344 154.703125 164.316406 154.703125 164.605469 154.703125 C 169.339844 154.703125 173.878906 155.503906 177.824219 156.894531 L 177.824219 224.160156 C 171.882812 224.984375 168.085938 225.25 163.492188 225.25 C 142.140625 225.261719 130.503906 213.015625 130.503906 190.675781 Z M 130.503906 190.675781 " fill-opacity="1" fill-rule="nonzero"/></g><g clip-path="url(#ede87fbe49)"><path fill="#000000" d="M 244.101562 59.402344 L 285.746094 59.402344 L 285.746094 102.429688 L 244.101562 102.429688 Z M 244.101562 59.402344 " fill-opacity="1" fill-rule="nonzero"/></g></svg>