<svg xmlns="http://www.w3.org/2000/svg" xmlns:xlink="http://www.w3.org/1999/xlink" width="500" zoomAndPan="magnify" viewBox="0 0 375 374.999991" height="500" preserveAspectRatio="xMidYMid meet" version="1.0"><defs><clipPath id="40bf6251a6"><path d="M 71 76 L 298 76 L 298 302.550781 L 71 302.550781 Z M 71 76 " clip-rule="nonzero"/></clipPath></defs><g clip-path="url(#40bf6251a6)"><path fill="#ffffff" d="M 212.101562 302.691406 C 208.054688 280.582031 217.496094 257.417969 204.230469 236.277344 C 209.53125 234.597656 214.875 233.203125 219.996094 231.230469 C 249.09375 220.035156 260.765625 188.683594 245.554688 161.609375 C 242.191406 155.625 240.925781 150.199219 241.691406 143.367188 C 242.382812 137.179688 240.8125 130.734375 240.015625 121.898438 C 231.273438 125.460938 224.550781 128.664062 217.523438 130.90625 C 212.4375 132.503906 207.230469 133.382812 201.902344 133.546875 C 190.808594 133.90625 179.59375 132.691406 168.621094 133.882812 C 162.042969 134.59375 156.902344 133.871094 151.222656 130.679688 C 145.21875 127.308594 138.457031 125.289062 130.027344 121.867188 C 129.03125 130.070312 127.113281 136.445312 127.820312 142.511719 C 128.679688 149.953125 127.015625 155.757812 123.523438 162.292969 C 107.730469 191.867188 123.554688 225.035156 157.15625 233.910156 C 159.675781 234.574219 162.230469 235.09375 165.320312 235.808594 C 163.085938 240.957031 161.421875 245.851562 158.917969 250.269531 C 156.304688 254.886719 147.421875 254.53125 142.460938 249.632812 C 139.761719 246.972656 137.851562 243.53125 135.351562 240.644531 C 130.234375 234.734375 124.453125 230.042969 115.269531 231.175781 C 115.308594 237.558594 114.253906 243.761719 122.300781 246.246094 C 123.789062 246.703125 125.132812 248.449219 126.015625 249.917969 C 133.132812 261.808594 143.054688 268.371094 157.851562 266.046875 L 157.851562 301.890625 C 118.011719 300.847656 73.300781 245.488281 71.691406 195.121094 C 69.746094 134.125 115.152344 82.5 175.328125 77.296875 C 233.085938 72.296875 287.859375 114.730469 296.257812 170.980469 C 305.253906 231.21875 267.339844 290.804688 212.101562 302.691406 Z M 212.101562 302.691406 " fill-opacity="1" fill-rule="nonzero"/><path fill="#ffffff" d="M 212.101562 302.691406 C 208.054688 280.582031 217.496094 257.417969 204.230469 236.277344 C 209.53125 234.597656 214.875 233.203125 219.996094 231.230469 C 249.09375 220.035156 260.765625 188.683594 245.554688 161.609375 C 242.191406 155.625 240.925781 150.199219 241.691406 143.367188 C 242.382812 137.179688 240.8125 130.734375 240.015625 121.898438 C 231.273438 125.460938 224.550781 128.664062 217.523438 130.90625 C 212.4375 132.503906 207.230469 133.382812 201.902344 133.546875 C 190.808594 133.90625 179.59375 132.691406 168.621094 133.882812 C 162.042969 134.59375 156.902344 133.871094 151.222656 130.679688 C 145.21875 127.308594 138.457031 125.289062 130.027344 121.867188 C 129.03125 130.070312 127.113281 136.445312 127.820312 142.511719 C 128.679688 149.953125 127.015625 155.757812 123.523438 162.292969 C 107.730469 191.867188 123.554688 225.035156 157.15625 233.910156 C 159.675781 234.574219 162.230469 235.09375 165.320312 235.808594 C 163.085938 240.957031 161.421875 245.851562 158.917969 250.269531 C 156.304688 254.886719 147.421875 254.53125 142.460938 249.632812 C 139.761719 246.972656 137.851562 243.53125 135.351562 240.644531 C 130.234375 234.734375 124.453125 230.042969 115.269531 231.175781 C 115.308594 237.558594 114.253906 243.761719 122.300781 246.246094 C 123.789062 246.703125 125.132812 248.449219 126.015625 249.917969 C 133.132812 261.808594 143.054688 268.371094 157.851562 266.046875 L 157.851562 301.890625 C 118.011719 300.847656 73.300781 245.488281 71.691406 195.121094 C 69.746094 134.125 115.152344 82.5 175.328125 77.296875 C 233.085938 72.296875 287.859375 114.730469 296.257812 170.980469 C 305.253906 231.21875 267.339844 290.804688 212.101562 302.691406 Z M 212.101562 302.691406 " fill-opacity="1" fill-rule="nonzero"/></g></svg>