<svg xmlns="http://www.w3.org/2000/svg" xmlns:xlink="http://www.w3.org/1999/xlink" width="500" zoomAndPan="magnify" viewBox="0 0 375 374.999991" height="500" preserveAspectRatio="xMidYMid meet" version="1.0">
<defs>
    <clipPath id="bf2cdb775c">
        <path d="M 64.105469 61 L 310.851562 61 L 310.851562 314 L 64.105469 314 Z M 64.105469 61 " clip-rule="nonzero"/>
    </clipPath>
</defs>
<g clip-path="url(#bf2cdb775c)">
<path fill="#000000" d="M 187.820312 313.757812 C 186.34375 313.765625 184.902344 313.539062 183.5 313.074219 L 101.476562 285.753906 C 100.269531 285.351562 99.136719 284.789062 98.085938 284.070312 C 97.03125 283.351562 96.097656 282.5 95.285156 281.519531 C 94.46875 280.539062 93.804688 279.46875 93.289062 278.300781 C 92.777344 277.136719 92.433594 275.921875 92.257812 274.660156 L 64.917969 76.578125 C 64.851562 76.09375 64.808594 75.609375 64.792969 75.121094 C 64.777344 74.636719 64.789062 74.148438 64.824219 73.664062 C 64.863281 73.179688 64.921875 72.695312 65.011719 72.21875 C 65.101562 71.738281 65.214844 71.265625 65.351562 70.800781 C 65.492188 70.332031 65.65625 69.875 65.84375 69.425781 C 66.03125 68.976562 66.242188 68.539062 66.476562 68.109375 C 66.710938 67.683594 66.96875 67.269531 67.246094 66.871094 C 67.527344 66.472656 67.824219 66.089844 68.144531 65.722656 C 68.464844 65.355469 68.804688 65.003906 69.160156 64.675781 C 69.519531 64.34375 69.890625 64.03125 70.28125 63.742188 C 70.671875 63.449219 71.078125 63.179688 71.496094 62.933594 C 71.917969 62.683594 72.347656 62.460938 72.792969 62.257812 C 73.234375 62.054688 73.6875 61.878906 74.152344 61.726562 C 74.613281 61.570312 75.082031 61.445312 75.558594 61.339844 C 76.035156 61.238281 76.515625 61.160156 77 61.109375 C 77.484375 61.054688 77.96875 61.03125 78.457031 61.03125 L 297.183594 61.03125 C 297.671875 61.03125 298.15625 61.054688 298.640625 61.109375 C 299.125 61.160156 299.601562 61.238281 300.078125 61.339844 C 300.554688 61.445312 301.023438 61.570312 301.484375 61.726562 C 301.949219 61.878906 302.398438 62.054688 302.84375 62.257812 C 303.285156 62.457031 303.71875 62.683594 304.136719 62.929688 C 304.554688 63.179688 304.960938 63.445312 305.351562 63.738281 C 305.742188 64.027344 306.113281 64.339844 306.472656 64.667969 C 306.828125 65 307.167969 65.347656 307.488281 65.714844 C 307.808594 66.082031 308.105469 66.464844 308.386719 66.863281 C 308.664062 67.261719 308.921875 67.675781 309.15625 68.101562 C 309.390625 68.527344 309.601562 68.964844 309.789062 69.414062 C 309.976562 69.863281 310.140625 70.320312 310.28125 70.785156 C 310.421875 71.25 310.535156 71.722656 310.621094 72.203125 C 310.710938 72.679688 310.773438 73.160156 310.8125 73.648438 C 310.847656 74.132812 310.859375 74.617188 310.84375 75.105469 C 310.832031 75.589844 310.789062 76.074219 310.722656 76.554688 L 283.382812 274.640625 C 283.210938 275.902344 282.867188 277.121094 282.355469 278.289062 C 281.839844 279.457031 281.175781 280.53125 280.363281 281.511719 C 279.546875 282.496094 278.613281 283.347656 277.558594 284.066406 C 276.503906 284.785156 275.375 285.347656 274.164062 285.753906 L 192.140625 313.074219 C 190.738281 313.539062 189.296875 313.765625 187.820312 313.757812 Z M 118.183594 262.527344 L 187.820312 285.699219 L 257.457031 262.472656 L 281.496094 88.351562 L 94.179688 88.351562 Z M 118.183594 262.527344 " fill-opacity="1" fill-rule="nonzero"/>
</g><path fill="#000000" d="M 187.820312 255.699219 C 186.480469 255.699219 185.171875 255.507812 183.890625 255.125 L 149.714844 244.878906 C 148.527344 244.523438 147.410156 244.015625 146.359375 243.355469 C 145.3125 242.695312 144.367188 241.90625 143.535156 240.988281 C 142.699219 240.074219 142.003906 239.0625 141.445312 237.957031 C 140.886719 236.851562 140.484375 235.691406 140.242188 234.476562 L 138.875 227.644531 C 138.703125 226.792969 138.617188 225.929688 138.609375 225.0625 C 138.605469 224.191406 138.679688 223.328125 138.839844 222.472656 C 139 221.617188 139.238281 220.785156 139.554688 219.976562 C 139.875 219.167969 140.265625 218.394531 140.734375 217.660156 C 141.199219 216.925781 141.730469 216.242188 142.328125 215.609375 C 142.921875 214.976562 143.574219 214.402344 144.28125 213.894531 C 144.984375 213.386719 145.734375 212.949219 146.523438 212.582031 C 147.3125 212.214844 148.128906 211.925781 148.976562 211.71875 C 149.820312 211.507812 150.675781 211.378906 151.546875 211.332031 C 152.414062 211.285156 153.28125 211.320312 154.140625 211.4375 C 155.003906 211.558594 155.847656 211.757812 156.671875 212.035156 C 157.496094 212.316406 158.285156 212.671875 159.042969 213.101562 C 159.800781 213.53125 160.507812 214.03125 161.171875 214.59375 C 161.832031 215.160156 162.433594 215.785156 162.976562 216.464844 C 163.515625 217.144531 163.988281 217.871094 164.394531 218.640625 C 164.796875 219.414062 165.125 220.214844 165.375 221.046875 L 187.820312 227.777344 L 209.691406 221.21875 L 213.070312 197.640625 L 146.808594 197.640625 C 145.984375 197.640625 145.164062 197.566406 144.351562 197.417969 C 143.539062 197.265625 142.746094 197.046875 141.972656 196.753906 C 141.203125 196.460938 140.460938 196.105469 139.753906 195.675781 C 139.046875 195.25 138.382812 194.765625 137.765625 194.21875 C 137.144531 193.671875 136.582031 193.074219 136.070312 192.425781 C 135.558594 191.777344 135.109375 191.085938 134.726562 190.359375 C 134.339844 189.628906 134.023438 188.871094 133.773438 188.082031 C 133.527344 187.292969 133.351562 186.492188 133.25 185.671875 L 126.414062 131.027344 C 126.351562 130.550781 126.320312 130.070312 126.308594 129.585938 C 126.300781 129.101562 126.316406 128.621094 126.359375 128.140625 C 126.402344 127.660156 126.46875 127.183594 126.5625 126.707031 C 126.65625 126.234375 126.773438 125.765625 126.914062 125.304688 C 127.058594 124.84375 127.226562 124.390625 127.414062 123.949219 C 127.605469 123.503906 127.820312 123.070312 128.054688 122.652344 C 128.292969 122.230469 128.550781 121.824219 128.828125 121.429688 C 129.109375 121.035156 129.410156 120.65625 129.726562 120.296875 C 130.046875 119.933594 130.386719 119.589844 130.742188 119.261719 C 131.097656 118.9375 131.472656 118.628906 131.859375 118.34375 C 132.25 118.058594 132.652344 117.792969 133.066406 117.546875 C 133.484375 117.304688 133.914062 117.082031 134.355469 116.882812 C 134.792969 116.683594 135.242188 116.511719 135.703125 116.359375 C 136.160156 116.207031 136.628906 116.082031 137.097656 115.980469 C 137.570312 115.878906 138.046875 115.800781 138.527344 115.75 C 139.007812 115.699219 139.492188 115.675781 139.972656 115.675781 L 235.667969 115.675781 C 236.5625 115.675781 237.453125 115.761719 238.332031 115.9375 C 239.214844 116.113281 240.070312 116.371094 240.898438 116.714844 C 241.726562 117.058594 242.515625 117.476562 243.261719 117.976562 C 244.007812 118.472656 244.699219 119.039062 245.332031 119.675781 C 245.96875 120.308594 246.535156 121 247.03125 121.746094 C 247.53125 122.492188 247.953125 123.277344 248.296875 124.105469 C 248.640625 124.9375 248.898438 125.789062 249.074219 126.667969 C 249.25 127.550781 249.335938 128.4375 249.335938 129.335938 C 249.335938 130.230469 249.25 131.121094 249.074219 132 C 248.898438 132.878906 248.640625 133.734375 248.296875 134.5625 C 247.953125 135.390625 247.53125 136.179688 247.03125 136.925781 C 246.535156 137.671875 245.96875 138.359375 245.332031 138.996094 C 244.699219 139.628906 244.007812 140.195312 243.261719 140.695312 C 242.515625 141.191406 241.726562 141.613281 240.898438 141.957031 C 240.070312 142.300781 239.214844 142.558594 238.332031 142.734375 C 237.453125 142.910156 236.5625 142.996094 235.667969 142.996094 L 155.460938 142.996094 L 158.878906 170.316406 L 228.832031 170.316406 C 229.320312 170.316406 229.804688 170.34375 230.292969 170.394531 C 230.777344 170.449219 231.257812 170.527344 231.734375 170.628906 C 232.214844 170.734375 232.683594 170.863281 233.148438 171.015625 C 233.609375 171.167969 234.0625 171.347656 234.507812 171.550781 C 234.953125 171.753906 235.382812 171.980469 235.804688 172.226562 C 236.222656 172.476562 236.628906 172.746094 237.019531 173.039062 C 237.410156 173.332031 237.785156 173.644531 238.144531 173.976562 C 238.5 174.308594 238.839844 174.660156 239.160156 175.027344 C 239.480469 175.398438 239.777344 175.78125 240.058594 176.183594 C 240.335938 176.582031 240.59375 176.996094 240.828125 177.425781 C 241.0625 177.851562 241.273438 178.292969 241.457031 178.742188 C 241.644531 179.195312 241.808594 179.652344 241.945312 180.121094 C 242.085938 180.589844 242.195312 181.0625 242.285156 181.542969 C 242.371094 182.023438 242.433594 182.507812 242.46875 182.992188 C 242.503906 183.480469 242.511719 183.96875 242.496094 184.457031 C 242.476562 184.941406 242.433594 185.429688 242.363281 185.910156 L 235.53125 233.726562 C 235.34375 235.015625 234.984375 236.253906 234.445312 237.441406 C 233.90625 238.628906 233.210938 239.714844 232.359375 240.703125 C 231.507812 241.691406 230.535156 242.542969 229.441406 243.25 C 228.347656 243.960938 227.175781 244.503906 225.925781 244.878906 L 191.75 255.125 C 190.46875 255.507812 189.160156 255.699219 187.820312 255.699219 Z M 187.820312 255.699219 " fill-opacity="1" fill-rule="nonzero"/>
</svg>