<svg xmlns="http://www.w3.org/2000/svg" xmlns:xlink="http://www.w3.org/1999/xlink" width="500" zoomAndPan="magnify" viewBox="0 0 375 374.999991" height="500" preserveAspectRatio="xMidYMid meet" version="1.0"><defs><clipPath id="f57767d794"><path d="M 72.300781 72.300781 L 302.550781 72.300781 L 302.550781 302.550781 L 72.300781 302.550781 Z M 72.300781 72.300781 " clip-rule="nonzero"/></clipPath><clipPath id="dfb903371c"><path d="M 72.300781 72.300781 L 302.550781 72.300781 L 302.550781 302.550781 L 72.300781 302.550781 Z M 72.300781 72.300781 " clip-rule="nonzero"/></clipPath></defs><path fill="#ffffff" d="M 158.671875 187.417969 C 158.671875 171.511719 171.566406 158.617188 187.476562 158.617188 C 203.382812 158.617188 216.277344 171.511719 216.277344 187.417969 C 216.277344 203.328125 203.382812 216.222656 187.476562 216.222656 C 171.566406 216.222656 158.671875 203.328125 158.671875 187.417969 Z M 158.671875 187.417969 " fill-opacity="1" fill-rule="nonzero"/><g clip-path="url(#f57767d794)"><path fill="#ffffff" d="M 187.476562 302.632812 C 92.597656 302.632812 72.261719 282.296875 72.261719 187.417969 C 72.261719 92.542969 92.597656 72.207031 187.476562 72.207031 C 282.351562 72.207031 302.6875 92.542969 302.6875 187.417969 C 302.6875 282.296875 282.351562 302.632812 187.476562 302.632812 Z M 225.878906 129.8125 C 225.878906 135.117188 230.179688 139.414062 235.480469 139.414062 C 240.78125 139.414062 245.082031 135.117188 245.082031 129.8125 C 245.082031 124.511719 240.78125 120.210938 235.480469 120.210938 C 230.179688 120.210938 225.878906 124.511719 225.878906 129.8125 Z M 139.472656 187.417969 C 139.472656 160.90625 160.964844 139.414062 187.476562 139.414062 C 213.988281 139.414062 235.480469 160.90625 235.480469 187.417969 C 235.480469 213.933594 213.988281 235.425781 187.476562 235.425781 C 160.964844 235.425781 139.472656 213.933594 139.472656 187.417969 Z M 139.472656 187.417969 " fill-opacity="1" fill-rule="evenodd"/></g><path fill="#ffffff" d="M 158.671875 187.417969 C 158.671875 171.511719 171.566406 158.617188 187.476562 158.617188 C 203.382812 158.617188 216.277344 171.511719 216.277344 187.417969 C 216.277344 203.328125 203.382812 216.222656 187.476562 216.222656 C 171.566406 216.222656 158.671875 203.328125 158.671875 187.417969 Z M 158.671875 187.417969 " fill-opacity="1" fill-rule="nonzero"/><g clip-path="url(#dfb903371c)"><path fill="#ffffff" d="M 187.476562 302.632812 C 92.597656 302.632812 72.261719 282.296875 72.261719 187.417969 C 72.261719 92.542969 92.597656 72.207031 187.476562 72.207031 C 282.351562 72.207031 302.6875 92.542969 302.6875 187.417969 C 302.6875 282.296875 282.351562 302.632812 187.476562 302.632812 Z M 225.878906 129.8125 C 225.878906 135.117188 230.179688 139.414062 235.480469 139.414062 C 240.78125 139.414062 245.082031 135.117188 245.082031 129.8125 C 245.082031 124.511719 240.78125 120.210938 235.480469 120.210938 C 230.179688 120.210938 225.878906 124.511719 225.878906 129.8125 Z M 139.472656 187.417969 C 139.472656 160.90625 160.964844 139.414062 187.476562 139.414062 C 213.988281 139.414062 235.480469 160.90625 235.480469 187.417969 C 235.480469 213.933594 213.988281 235.425781 187.476562 235.425781 C 160.964844 235.425781 139.472656 213.933594 139.472656 187.417969 Z M 139.472656 187.417969 " fill-opacity="1" fill-rule="evenodd"/></g></svg>