<svg xmlns="http://www.w3.org/2000/svg" xmlns:xlink="http://www.w3.org/1999/xlink" width="500" zoomAndPan="magnify" viewBox="0 0 375 374.999991" height="500" preserveAspectRatio="xMidYMid meet" version="1.0"><defs><clipPath id="991bb52412"><path d="M 67.105469 64 L 307.855469 64 L 307.855469 311 L 67.105469 311 Z M 67.105469 64 " clip-rule="nonzero"/></clipPath></defs><g clip-path="url(#991bb52412)"><path fill="#000000" d="M 187.816406 310.859375 C 186.375 310.863281 184.96875 310.640625 183.601562 310.191406 L 103.574219 283.515625 C 102.390625 283.121094 101.289062 282.574219 100.261719 281.871094 C 99.234375 281.167969 98.324219 280.339844 97.527344 279.382812 C 96.734375 278.425781 96.085938 277.378906 95.582031 276.238281 C 95.082031 275.101562 94.746094 273.917969 94.574219 272.683594 L 67.898438 79.28125 C 67.835938 78.8125 67.792969 78.339844 67.777344 77.863281 C 67.765625 77.390625 67.773438 76.914062 67.808594 76.441406 C 67.847656 75.964844 67.90625 75.496094 67.992188 75.027344 C 68.078125 74.558594 68.191406 74.097656 68.324219 73.644531 C 68.460938 73.1875 68.621094 72.738281 68.804688 72.300781 C 68.988281 71.863281 69.191406 71.433594 69.421875 71.019531 C 69.652344 70.601562 69.902344 70.199219 70.171875 69.808594 C 70.445312 69.417969 70.738281 69.042969 71.050781 68.6875 C 71.363281 68.328125 71.691406 67.984375 72.039062 67.664062 C 72.390625 67.339844 72.753906 67.035156 73.136719 66.75 C 73.515625 66.46875 73.910156 66.203125 74.320312 65.960938 C 74.730469 65.71875 75.152344 65.5 75.582031 65.304688 C 76.015625 65.105469 76.457031 64.933594 76.910156 64.785156 C 77.359375 64.632812 77.820312 64.507812 78.28125 64.40625 C 78.746094 64.308594 79.214844 64.230469 79.6875 64.179688 C 80.160156 64.128906 80.636719 64.105469 81.109375 64.105469 L 294.519531 64.105469 C 294.992188 64.105469 295.46875 64.128906 295.9375 64.179688 C 296.410156 64.230469 296.878906 64.308594 297.34375 64.40625 C 297.808594 64.507812 298.265625 64.632812 298.714844 64.78125 C 299.167969 64.933594 299.609375 65.105469 300.039062 65.300781 C 300.472656 65.5 300.894531 65.71875 301.300781 65.960938 C 301.710938 66.203125 302.105469 66.464844 302.488281 66.746094 C 302.867188 67.03125 303.234375 67.335938 303.582031 67.65625 C 303.929688 67.980469 304.257812 68.320312 304.570312 68.679688 C 304.882812 69.035156 305.175781 69.410156 305.449219 69.800781 C 305.71875 70.1875 305.972656 70.59375 306.199219 71.007812 C 306.429688 71.425781 306.636719 71.851562 306.820312 72.289062 C 307.003906 72.726562 307.160156 73.171875 307.296875 73.628906 C 307.433594 74.082031 307.542969 74.546875 307.632812 75.011719 C 307.71875 75.480469 307.777344 75.949219 307.816406 76.421875 C 307.851562 76.894531 307.863281 77.371094 307.847656 77.84375 C 307.835938 78.320312 307.792969 78.792969 307.730469 79.261719 L 281.054688 272.664062 C 280.886719 273.898438 280.550781 275.085938 280.050781 276.226562 C 279.550781 277.367188 278.902344 278.414062 278.105469 279.375 C 277.3125 280.332031 276.398438 281.164062 275.371094 281.867188 C 274.34375 282.570312 273.238281 283.121094 272.058594 283.515625 L 192.03125 310.191406 C 190.660156 310.640625 189.257812 310.863281 187.816406 310.859375 Z M 119.871094 260.839844 L 187.816406 283.460938 L 255.757812 260.785156 L 279.214844 90.78125 L 96.449219 90.78125 Z M 119.871094 260.839844 " fill-opacity="1" fill-rule="nonzero"/></g><path fill="#000000" d="M 167.808594 250.835938 C 165.707031 250.835938 163.71875 250.367188 161.839844 249.429688 L 135.164062 236.089844 C 134.378906 235.699219 133.640625 235.234375 132.949219 234.699219 C 132.253906 234.160156 131.621094 233.5625 131.046875 232.898438 C 130.472656 232.238281 129.96875 231.527344 129.535156 230.765625 C 129.101562 230.003906 128.746094 229.207031 128.46875 228.375 C 128.191406 227.546875 127.996094 226.695312 127.886719 225.824219 C 127.777344 224.957031 127.753906 224.082031 127.816406 223.210938 C 127.878906 222.335938 128.023438 221.476562 128.257812 220.628906 C 128.488281 219.785156 128.800781 218.972656 129.191406 218.1875 C 129.585938 217.402344 130.050781 216.664062 130.585938 215.972656 C 131.125 215.28125 131.722656 214.648438 132.386719 214.074219 C 133.046875 213.5 133.761719 212.996094 134.523438 212.5625 C 135.285156 212.128906 136.082031 211.773438 136.910156 211.496094 C 137.742188 211.21875 138.59375 211.027344 139.464844 210.917969 C 140.332031 210.808594 141.207031 210.785156 142.078125 210.847656 C 142.953125 210.914062 143.8125 211.058594 144.65625 211.292969 C 145.503906 211.523438 146.316406 211.835938 147.101562 212.230469 L 154.46875 215.917969 L 154.46875 144.132812 L 127.792969 144.132812 C 126.917969 144.132812 126.050781 144.046875 125.191406 143.875 C 124.332031 143.707031 123.5 143.453125 122.691406 143.117188 C 121.878906 142.78125 121.113281 142.371094 120.382812 141.882812 C 119.65625 141.398438 118.980469 140.84375 118.363281 140.226562 C 117.742188 139.605469 117.191406 138.933594 116.703125 138.203125 C 116.21875 137.476562 115.804688 136.707031 115.472656 135.898438 C 115.136719 135.089844 114.882812 134.253906 114.710938 133.398438 C 114.542969 132.539062 114.457031 131.671875 114.457031 130.792969 C 114.457031 129.917969 114.542969 129.050781 114.710938 128.191406 C 114.882812 127.332031 115.136719 126.5 115.472656 125.691406 C 115.804688 124.882812 116.21875 124.113281 116.703125 123.382812 C 117.191406 122.65625 117.742188 121.980469 118.363281 121.363281 C 118.980469 120.742188 119.65625 120.191406 120.382812 119.703125 C 121.113281 119.21875 121.878906 118.808594 122.691406 118.472656 C 123.5 118.136719 124.332031 117.882812 125.191406 117.710938 C 126.050781 117.542969 126.917969 117.457031 127.792969 117.457031 L 167.808594 117.457031 C 168.683594 117.457031 169.550781 117.542969 170.410156 117.710938 C 171.269531 117.882812 172.101562 118.136719 172.914062 118.472656 C 173.722656 118.808594 174.488281 119.21875 175.21875 119.703125 C 175.945312 120.191406 176.621094 120.742188 177.238281 121.363281 C 177.859375 121.980469 178.410156 122.65625 178.898438 123.382812 C 179.382812 124.113281 179.796875 124.882812 180.128906 125.691406 C 180.464844 126.5 180.71875 127.332031 180.890625 128.191406 C 181.058594 129.050781 181.144531 129.917969 181.144531 130.792969 L 181.144531 237.5 C 181.144531 238.375 181.058594 239.242188 180.890625 240.101562 C 180.71875 240.960938 180.464844 241.792969 180.128906 242.601562 C 179.796875 243.410156 179.382812 244.179688 178.898438 244.910156 C 178.410156 245.636719 177.859375 246.308594 177.238281 246.929688 C 176.621094 247.550781 175.945312 248.101562 175.21875 248.589844 C 174.488281 249.074219 173.722656 249.484375 172.914062 249.820312 C 172.101562 250.15625 171.269531 250.410156 170.410156 250.582031 C 169.550781 250.75 168.683594 250.835938 167.808594 250.835938 Z M 167.808594 250.835938 " fill-opacity="1" fill-rule="nonzero"/><path fill="#000000" d="M 207.820312 250.835938 C 207.015625 250.835938 206.214844 250.761719 205.421875 250.617188 C 204.628906 250.46875 203.855469 250.253906 203.101562 249.96875 C 202.347656 249.679688 201.625 249.328125 200.933594 248.910156 C 200.246094 248.496094 199.597656 248.019531 198.992188 247.484375 C 198.390625 246.949219 197.839844 246.363281 197.339844 245.730469 C 196.84375 245.09375 196.40625 244.421875 196.03125 243.707031 C 195.65625 242.992188 195.347656 242.25 195.105469 241.480469 C 194.867188 240.710938 194.695312 239.925781 194.597656 239.125 C 194.5 238.324219 194.472656 237.519531 194.523438 236.714844 C 194.570312 235.910156 194.6875 235.117188 194.878906 234.332031 C 195.070312 233.550781 195.332031 232.789062 195.660156 232.054688 C 195.988281 231.316406 196.382812 230.617188 196.839844 229.949219 C 197.296875 229.285156 197.808594 228.667969 198.378906 228.09375 C 198.945312 227.523438 199.5625 227.007812 200.222656 226.546875 C 200.886719 226.085938 201.585938 225.6875 202.320312 225.355469 C 203.054688 225.023438 203.8125 224.757812 204.59375 224.5625 L 222.601562 220.066406 L 225.78125 197.484375 L 214.492188 197.484375 C 213.835938 197.484375 213.183594 197.453125 212.53125 197.386719 C 211.878906 197.324219 211.230469 197.226562 210.585938 197.101562 C 209.945312 196.972656 209.308594 196.8125 208.683594 196.621094 C 208.054688 196.433594 207.441406 196.210938 206.835938 195.960938 C 206.230469 195.710938 205.636719 195.429688 205.058594 195.121094 C 204.480469 194.8125 203.921875 194.476562 203.375 194.113281 C 202.832031 193.75 202.304688 193.359375 201.796875 192.941406 C 201.292969 192.527344 200.808594 192.085938 200.34375 191.625 C 199.878906 191.160156 199.441406 190.675781 199.023438 190.167969 C 198.609375 189.664062 198.21875 189.136719 197.855469 188.59375 C 197.492188 188.046875 197.15625 187.488281 196.847656 186.910156 C 196.539062 186.332031 196.257812 185.738281 196.007812 185.132812 C 195.757812 184.527344 195.535156 183.914062 195.34375 183.285156 C 195.15625 182.65625 194.996094 182.023438 194.867188 181.378906 C 194.742188 180.738281 194.644531 180.089844 194.582031 179.4375 C 194.515625 178.785156 194.484375 178.132812 194.484375 177.476562 L 194.484375 137.464844 C 194.484375 136.808594 194.515625 136.15625 194.582031 135.503906 C 194.644531 134.851562 194.742188 134.203125 194.867188 133.558594 C 194.996094 132.917969 195.15625 132.28125 195.34375 131.65625 C 195.535156 131.027344 195.757812 130.414062 196.007812 129.808594 C 196.257812 129.203125 196.539062 128.609375 196.847656 128.03125 C 197.15625 127.453125 197.492188 126.894531 197.855469 126.347656 C 198.21875 125.804688 198.609375 125.277344 199.023438 124.769531 C 199.441406 124.265625 199.878906 123.78125 200.34375 123.316406 C 200.808594 122.851562 201.292969 122.414062 201.796875 121.996094 C 202.304688 121.582031 202.832031 121.191406 203.375 120.828125 C 203.921875 120.464844 204.480469 120.128906 205.058594 119.820312 C 205.636719 119.511719 206.230469 119.230469 206.835938 118.980469 C 207.441406 118.730469 208.054688 118.507812 208.683594 118.316406 C 209.308594 118.128906 209.945312 117.96875 210.585938 117.839844 C 211.230469 117.714844 211.878906 117.617188 212.53125 117.554688 C 213.183594 117.488281 213.835938 117.457031 214.492188 117.457031 L 247.835938 117.457031 C 248.710938 117.457031 249.578125 117.542969 250.4375 117.710938 C 251.296875 117.882812 252.128906 118.136719 252.941406 118.472656 C 253.75 118.808594 254.519531 119.21875 255.246094 119.703125 C 255.972656 120.191406 256.648438 120.742188 257.265625 121.363281 C 257.886719 121.980469 258.4375 122.65625 258.925781 123.382812 C 259.414062 124.113281 259.824219 124.882812 260.160156 125.691406 C 260.492188 126.5 260.746094 127.332031 260.917969 128.191406 C 261.089844 129.050781 261.171875 129.917969 261.171875 130.792969 C 261.171875 131.671875 261.089844 132.539062 260.917969 133.398438 C 260.746094 134.253906 260.492188 135.089844 260.160156 135.898438 C 259.824219 136.707031 259.414062 137.476562 258.925781 138.203125 C 258.4375 138.933594 257.886719 139.605469 257.265625 140.226562 C 256.648438 140.84375 255.972656 141.398438 255.246094 141.882812 C 254.519531 142.371094 253.75 142.78125 252.941406 143.117188 C 252.128906 143.453125 251.296875 143.707031 250.4375 143.875 C 249.578125 144.046875 248.710938 144.132812 247.835938 144.132812 L 221.160156 144.132812 L 221.160156 170.808594 L 233.46875 170.808594 C 234.125 170.808594 234.78125 170.839844 235.433594 170.90625 C 236.082031 170.96875 236.730469 171.066406 237.375 171.191406 C 238.015625 171.320312 238.652344 171.480469 239.277344 171.667969 C 239.90625 171.859375 240.523438 172.082031 241.128906 172.332031 C 241.730469 172.582031 242.324219 172.863281 242.902344 173.171875 C 243.480469 173.480469 244.042969 173.816406 244.585938 174.179688 C 245.128906 174.542969 245.65625 174.933594 246.164062 175.351562 C 246.667969 175.765625 247.15625 176.203125 247.617188 176.667969 C 248.082031 177.132812 248.519531 177.617188 248.9375 178.125 C 249.351562 178.628906 249.742188 179.15625 250.105469 179.699219 C 250.46875 180.246094 250.804688 180.804688 251.113281 181.382812 C 251.425781 181.960938 251.703125 182.554688 251.953125 183.160156 C 252.207031 183.765625 252.425781 184.378906 252.617188 185.007812 C 252.804688 185.632812 252.964844 186.269531 253.09375 186.914062 C 253.222656 187.554688 253.316406 188.203125 253.382812 188.855469 C 253.445312 189.507812 253.476562 190.160156 253.476562 190.816406 C 253.476562 191.78125 253.40625 192.742188 253.265625 193.695312 L 247.703125 232.710938 C 247.515625 234.023438 247.140625 235.28125 246.578125 236.480469 C 246.015625 237.679688 245.292969 238.773438 244.402344 239.757812 C 243.515625 240.742188 242.503906 241.578125 241.367188 242.261719 C 240.230469 242.945312 239.019531 243.445312 237.730469 243.765625 L 211.054688 250.4375 C 209.996094 250.703125 208.917969 250.835938 207.820312 250.835938 Z M 226.875 189.867188 Z M 226.875 189.867188 " fill-opacity="1" fill-rule="nonzero"/></svg>