<svg xmlns="http://www.w3.org/2000/svg" xmlns:xlink="http://www.w3.org/1999/xlink" width="500" zoomAndPan="magnify" viewBox="0 0 375 374.999991" height="500" preserveAspectRatio="xMidYMid meet" version="1.0"><defs><clipPath id="9aebab1410"><path d="M 66 62.351562 L 309.542969 62.351562 L 309.542969 312.851562 L 66 312.851562 Z M 66 62.351562 " clip-rule="nonzero"/></clipPath></defs><g clip-path="url(#9aebab1410)"><path fill="#000000" d="M 309.300781 119.105469 C 309.425781 119.355469 309.425781 119.730469 309.425781 120.105469 L 309.425781 173.84375 C 309.425781 175.097656 308.675781 176.601562 307.546875 177.226562 L 262.304688 203.28125 L 262.304688 254.761719 C 262.304688 256.140625 261.675781 257.394531 260.421875 258.144531 L 166.175781 312.382812 C 165.925781 312.507812 165.671875 312.882812 165.421875 312.882812 L 165.171875 312.882812 C 164.546875 312.882812 163.792969 312.882812 163.167969 312.882812 C 163.042969 312.882812 162.664062 312.882812 162.664062 312.882812 C 162.664062 312.882812 162.664062 312.507812 162.164062 312.382812 L 67.914062 258.144531 C 66.789062 257.519531 66.035156 256.140625 66.035156 254.761719 L 66.035156 93.675781 C 66.035156 93.050781 66.035156 92.675781 66.160156 92.425781 C 66.160156 92.300781 66.285156 92.171875 66.285156 92.046875 C 66.285156 91.796875 66.410156 91.671875 66.539062 91.421875 C 66.539062 91.296875 66.664062 91.171875 66.789062 91.046875 C 66.914062 90.921875 67.039062 90.796875 67.164062 90.671875 C 67.289062 90.546875 67.414062 90.421875 67.539062 90.292969 C 67.664062 90.167969 67.789062 90.042969 67.914062 90.042969 L 115.039062 62.863281 C 116.292969 62.363281 117.796875 62.363281 118.800781 62.863281 L 166.175781 90.042969 C 166.300781 90.167969 166.425781 90.167969 166.550781 90.292969 C 166.675781 90.421875 166.800781 90.546875 166.925781 90.671875 C 167.050781 90.796875 167.175781 90.921875 167.304688 91.046875 C 167.429688 91.171875 167.554688 91.296875 167.554688 91.421875 C 167.679688 91.671875 167.804688 91.796875 167.804688 92.046875 C 167.804688 92.171875 167.929688 92.300781 167.929688 92.425781 C 168.054688 92.800781 168.054688 93.050781 168.054688 93.675781 L 168.054688 193.886719 L 207.40625 171.589844 L 207.40625 120.105469 C 207.40625 119.730469 207.40625 119.355469 207.535156 119.105469 L 207.660156 118.730469 C 207.660156 118.730469 207.785156 118.351562 207.910156 118.101562 C 207.910156 117.976562 208.035156 117.851562 208.160156 117.726562 C 208.285156 117.601562 208.410156 117.476562 208.535156 117.351562 C 208.660156 117.226562 208.789062 117.101562 208.910156 116.976562 C 209.039062 116.851562 209.164062 116.726562 209.289062 116.726562 L 256.664062 89.542969 C 257.664062 88.792969 259.167969 88.792969 260.421875 89.542969 L 307.546875 116.726562 C 307.671875 116.726562 307.796875 116.851562 307.921875 116.976562 L 308.300781 117.351562 C 308.425781 117.476562 308.550781 117.601562 308.675781 117.726562 C 308.800781 117.851562 308.800781 117.976562 308.925781 118.101562 C 309.050781 118.351562 309.050781 118.730469 309.175781 118.730469 C 309.300781 118.730469 309.300781 118.730469 309.300781 119.105469 Z M 301.65625 171.589844 L 301.65625 126.871094 L 262.304688 149.417969 L 262.304688 193.886719 Z M 254.53125 252.507812 L 254.53125 207.664062 L 168.054688 257.015625 L 168.054688 302.234375 Z M 73.804688 99.941406 L 73.804688 252.507812 L 160.285156 302.234375 L 160.285156 257.015625 L 115.164062 231.464844 L 115.039062 231.464844 C 114.914062 231.464844 114.789062 231.464844 114.664062 231.089844 C 114.539062 231.089844 114.414062 230.960938 114.289062 230.839844 C 114.164062 230.710938 114.039062 230.585938 113.910156 230.460938 C 113.785156 230.335938 113.785156 230.210938 113.660156 230.085938 C 113.535156 229.835938 113.535156 229.710938 113.410156 229.585938 C 113.410156 229.335938 113.285156 229.210938 113.285156 229.085938 C 113.160156 228.957031 113.160156 228.707031 113.160156 228.582031 C 113.160156 228.332031 113.160156 228.207031 113.160156 228.082031 L 113.160156 122.738281 Z M 117.046875 70.878906 L 77.816406 93.675781 L 117.046875 115.972656 L 156.398438 93.675781 Z M 160.285156 198.644531 L 160.285156 99.941406 L 120.929688 122.738281 L 120.929688 221.316406 Z M 258.417969 97.433594 L 219.0625 120.105469 L 258.417969 142.652344 L 297.644531 120.105469 Z M 254.53125 149.417969 L 215.179688 126.871094 L 215.179688 171.589844 L 254.53125 193.886719 Z M 164.167969 250.253906 L 250.394531 200.898438 L 211.292969 178.351562 L 125.066406 228.082031 Z M 164.167969 250.253906 " fill-opacity="1" fill-rule="nonzero"/><path fill="#000000" d="M 309.300781 119.105469 C 309.425781 119.355469 309.425781 119.730469 309.425781 120.105469 L 309.425781 173.84375 C 309.425781 175.097656 308.675781 176.601562 307.546875 177.226562 L 262.304688 203.28125 L 262.304688 254.761719 C 262.304688 256.140625 261.675781 257.394531 260.421875 258.144531 L 166.175781 312.382812 C 165.925781 312.507812 165.671875 312.882812 165.421875 312.882812 L 165.171875 312.882812 C 164.546875 312.882812 163.792969 312.882812 163.167969 312.882812 C 163.042969 312.882812 162.664062 312.882812 162.664062 312.882812 C 162.664062 312.882812 162.664062 312.507812 162.164062 312.382812 L 67.914062 258.144531 C 66.789062 257.519531 66.035156 256.140625 66.035156 254.761719 L 66.035156 93.675781 C 66.035156 93.050781 66.035156 92.675781 66.160156 92.425781 C 66.160156 92.300781 66.285156 92.171875 66.285156 92.046875 C 66.285156 91.796875 66.410156 91.671875 66.539062 91.421875 C 66.539062 91.296875 66.664062 91.171875 66.789062 91.046875 C 66.914062 90.921875 67.039062 90.796875 67.164062 90.671875 C 67.289062 90.546875 67.414062 90.421875 67.539062 90.292969 C 67.664062 90.167969 67.789062 90.042969 67.914062 90.042969 L 115.039062 62.863281 C 116.292969 62.363281 117.796875 62.363281 118.800781 62.863281 L 166.175781 90.042969 C 166.300781 90.167969 166.425781 90.167969 166.550781 90.292969 C 166.675781 90.421875 166.800781 90.546875 166.925781 90.671875 C 167.050781 90.796875 167.175781 90.921875 167.304688 91.046875 C 167.429688 91.171875 167.554688 91.296875 167.554688 91.421875 C 167.679688 91.671875 167.804688 91.796875 167.804688 92.046875 C 167.804688 92.171875 167.929688 92.300781 167.929688 92.425781 C 168.054688 92.800781 168.054688 93.050781 168.054688 93.675781 L 168.054688 193.886719 L 207.40625 171.589844 L 207.40625 120.105469 C 207.40625 119.730469 207.40625 119.355469 207.535156 119.105469 L 207.660156 118.730469 C 207.660156 118.730469 207.785156 118.351562 207.910156 118.101562 C 207.910156 117.976562 208.035156 117.851562 208.160156 117.726562 C 208.285156 117.601562 208.410156 117.476562 208.535156 117.351562 C 208.660156 117.226562 208.789062 117.101562 208.910156 116.976562 C 209.039062 116.851562 209.164062 116.726562 209.289062 116.726562 L 256.664062 89.542969 C 257.664062 88.792969 259.167969 88.792969 260.421875 89.542969 L 307.546875 116.726562 C 307.671875 116.726562 307.796875 116.851562 307.921875 116.976562 L 308.300781 117.351562 C 308.425781 117.476562 308.550781 117.601562 308.675781 117.726562 C 308.800781 117.851562 308.800781 117.976562 308.925781 118.101562 C 309.050781 118.351562 309.050781 118.730469 309.175781 118.730469 C 309.300781 118.730469 309.300781 118.730469 309.300781 119.105469 Z M 301.65625 171.589844 L 301.65625 126.871094 L 262.304688 149.417969 L 262.304688 193.886719 Z M 254.53125 252.507812 L 254.53125 207.664062 L 168.054688 257.015625 L 168.054688 302.234375 Z M 73.804688 99.941406 L 73.804688 252.507812 L 160.285156 302.234375 L 160.285156 257.015625 L 115.164062 231.464844 L 115.039062 231.464844 C 114.914062 231.464844 114.789062 231.464844 114.664062 231.089844 C 114.539062 231.089844 114.414062 230.960938 114.289062 230.839844 C 114.164062 230.710938 114.039062 230.585938 113.910156 230.460938 C 113.785156 230.335938 113.785156 230.210938 113.660156 230.085938 C 113.535156 229.835938 113.535156 229.710938 113.410156 229.585938 C 113.410156 229.335938 113.285156 229.210938 113.285156 229.085938 C 113.160156 228.957031 113.160156 228.707031 113.160156 228.582031 C 113.160156 228.332031 113.160156 228.207031 113.160156 228.082031 L 113.160156 122.738281 Z M 117.046875 70.878906 L 77.816406 93.675781 L 117.046875 115.972656 L 156.398438 93.675781 Z M 160.285156 198.644531 L 160.285156 99.941406 L 120.929688 122.738281 L 120.929688 221.316406 Z M 258.417969 97.433594 L 219.0625 120.105469 L 258.417969 142.652344 L 297.644531 120.105469 Z M 254.53125 149.417969 L 215.179688 126.871094 L 215.179688 171.589844 L 254.53125 193.886719 Z M 164.167969 250.253906 L 250.394531 200.898438 L 211.292969 178.351562 L 125.066406 228.082031 Z M 164.167969 250.253906 " fill-opacity="1" fill-rule="nonzero"/></g></svg>