<svg xmlns="http://www.w3.org/2000/svg" xmlns:xlink="http://www.w3.org/1999/xlink" width="500" zoomAndPan="magnify" viewBox="0 0 375 374.999991" height="500" preserveAspectRatio="xMidYMid meet" version="1.0"><defs><clipPath id="69296fc7ce"><path d="M 72.300781 72.300781 L 302.550781 72.300781 L 302.550781 302.550781 L 72.300781 302.550781 Z M 72.300781 72.300781 " clip-rule="nonzero"/></clipPath></defs><g clip-path="url(#69296fc7ce)"><path fill="#ffffff" d="M 281.707031 72.300781 L 93.117188 72.300781 C 92.433594 72.300781 91.75 72.332031 91.070312 72.402344 C 90.386719 72.46875 89.710938 72.566406 89.039062 72.703125 C 88.367188 72.835938 87.707031 73 87.050781 73.199219 C 86.394531 73.398438 85.75 73.628906 85.121094 73.890625 C 84.488281 74.152344 83.867188 74.445312 83.265625 74.769531 C 82.660156 75.089844 82.074219 75.441406 81.507812 75.820312 C 80.9375 76.203125 80.386719 76.609375 79.859375 77.042969 C 79.328125 77.476562 78.824219 77.9375 78.339844 78.421875 C 77.855469 78.90625 77.394531 79.410156 76.960938 79.941406 C 76.527344 80.46875 76.121094 81.019531 75.738281 81.589844 C 75.359375 82.15625 75.007812 82.742188 74.683594 83.347656 C 74.363281 83.953125 74.070312 84.570312 73.808594 85.203125 C 73.546875 85.835938 73.316406 86.476562 73.117188 87.132812 C 72.917969 87.789062 72.753906 88.449219 72.621094 89.121094 C 72.484375 89.792969 72.386719 90.46875 72.320312 91.152344 C 72.25 91.832031 72.21875 92.515625 72.21875 93.199219 L 72.21875 281.789062 C 72.21875 282.476562 72.25 283.160156 72.316406 283.839844 C 72.386719 284.519531 72.484375 285.195312 72.621094 285.867188 C 72.753906 286.539062 72.917969 287.203125 73.117188 287.859375 C 73.316406 288.511719 73.546875 289.15625 73.808594 289.789062 C 74.070312 290.421875 74.363281 291.039062 74.683594 291.644531 C 75.007812 292.246094 75.359375 292.832031 75.738281 293.402344 C 76.121094 293.972656 76.527344 294.519531 76.960938 295.050781 C 77.394531 295.578125 77.855469 296.085938 78.339844 296.570312 C 78.824219 297.054688 79.328125 297.511719 79.859375 297.945312 C 80.386719 298.378906 80.9375 298.789062 81.507812 299.167969 C 82.074219 299.546875 82.660156 299.898438 83.265625 300.222656 C 83.867188 300.546875 84.488281 300.835938 85.121094 301.101562 C 85.75 301.363281 86.394531 301.59375 87.050781 301.789062 C 87.707031 301.988281 88.367188 302.15625 89.039062 302.289062 C 89.710938 302.421875 90.386719 302.523438 91.070312 302.589844 C 91.75 302.65625 92.433594 302.691406 93.117188 302.691406 L 281.707031 302.691406 C 282.394531 302.691406 283.074219 302.65625 283.757812 302.589844 C 284.4375 302.523438 285.113281 302.421875 285.785156 302.289062 C 286.457031 302.15625 287.121094 301.988281 287.777344 301.789062 C 288.429688 301.59375 289.074219 301.363281 289.707031 301.101562 C 290.339844 300.835938 290.957031 300.546875 291.5625 300.222656 C 292.164062 299.898438 292.75 299.546875 293.320312 299.167969 C 293.890625 298.789062 294.4375 298.382812 294.96875 297.945312 C 295.496094 297.511719 296.003906 297.054688 296.488281 296.570312 C 296.972656 296.085938 297.429688 295.578125 297.863281 295.050781 C 298.296875 294.519531 298.707031 293.972656 299.085938 293.402344 C 299.464844 292.832031 299.816406 292.246094 300.140625 291.644531 C 300.464844 291.039062 300.753906 290.421875 301.015625 289.789062 C 301.28125 289.15625 301.507812 288.511719 301.707031 287.859375 C 301.90625 287.203125 302.074219 286.539062 302.207031 285.867188 C 302.339844 285.195312 302.441406 284.519531 302.507812 283.839844 C 302.574219 283.160156 302.609375 282.476562 302.609375 281.789062 L 302.609375 93.199219 C 302.609375 92.515625 302.574219 91.832031 302.507812 91.152344 C 302.441406 90.46875 302.339844 89.792969 302.207031 89.121094 C 302.074219 88.449219 301.90625 87.789062 301.707031 87.132812 C 301.507812 86.476562 301.28125 85.835938 301.015625 85.203125 C 300.753906 84.570312 300.464844 83.953125 300.140625 83.347656 C 299.816406 82.742188 299.464844 82.15625 299.085938 81.589844 C 298.707031 81.019531 298.296875 80.46875 297.863281 79.941406 C 297.429688 79.410156 296.972656 78.90625 296.488281 78.421875 C 296.003906 77.9375 295.496094 77.476562 294.96875 77.042969 C 294.4375 76.609375 293.890625 76.203125 293.320312 75.820312 C 292.75 75.441406 292.164062 75.089844 291.5625 74.769531 C 290.957031 74.445312 290.339844 74.152344 289.707031 73.890625 C 289.074219 73.628906 288.429688 73.398438 287.777344 73.199219 C 287.121094 73 286.457031 72.835938 285.785156 72.703125 C 285.113281 72.566406 284.4375 72.46875 283.757812 72.402344 C 283.074219 72.332031 282.394531 72.300781 281.707031 72.300781 Z M 146.230469 111.382812 C 147.199219 111.398438 148.15625 111.511719 149.105469 111.714844 C 150.050781 111.917969 150.96875 112.214844 151.859375 112.597656 C 152.75 112.980469 153.59375 113.449219 154.390625 114 C 155.1875 114.550781 155.925781 115.171875 156.601562 115.867188 C 157.277344 116.5625 157.878906 117.316406 158.40625 118.128906 C 158.933594 118.941406 159.378906 119.796875 159.738281 120.695312 C 160.097656 121.597656 160.367188 122.523438 160.542969 123.472656 C 160.722656 124.425781 160.804688 125.386719 160.792969 126.355469 C 160.78125 127.324219 160.679688 128.285156 160.480469 129.234375 C 160.28125 130.179688 159.992188 131.101562 159.613281 131.992188 C 159.230469 132.882812 158.769531 133.730469 158.222656 134.53125 C 157.679688 135.332031 157.0625 136.074219 156.371094 136.75 C 155.679688 137.429688 154.929688 138.039062 154.117188 138.570312 C 153.308594 139.101562 152.457031 139.550781 151.558594 139.914062 C 150.660156 140.28125 149.734375 140.554688 148.785156 140.738281 C 147.832031 140.917969 146.871094 141.007812 145.902344 141.003906 C 144.933594 141 143.976562 140.898438 143.023438 140.707031 C 142.074219 140.511719 141.152344 140.226562 140.261719 139.851562 C 139.367188 139.480469 138.519531 139.019531 137.714844 138.480469 C 136.910156 137.9375 136.167969 137.324219 135.484375 136.636719 C 134.800781 135.949219 134.191406 135.203125 133.652344 134.398438 C 133.117188 133.589844 132.664062 132.738281 132.292969 131.84375 C 131.921875 130.949219 131.644531 130.023438 131.457031 129.074219 C 131.265625 128.125 131.171875 127.164062 131.171875 126.195312 C 131.179688 125.214844 131.28125 124.242188 131.476562 123.28125 C 131.675781 122.320312 131.964844 121.386719 132.347656 120.484375 C 132.726562 119.578125 133.195312 118.71875 133.746094 117.910156 C 134.296875 117.097656 134.921875 116.347656 135.621094 115.660156 C 136.320312 114.96875 137.082031 114.355469 137.902344 113.820312 C 138.722656 113.28125 139.589844 112.828125 140.5 112.460938 C 141.410156 112.09375 142.347656 111.820312 143.3125 111.640625 C 144.277344 111.457031 145.25 111.375 146.230469 111.382812 Z M 274.46875 229.789062 C 268.542969 246.246094 258.792969 253.320312 246.902344 253.320312 C 231.640625 253.320312 224.316406 244.269531 224.316406 231.84375 C 224.308594 228.082031 224.828125 224.390625 225.878906 220.777344 L 233.203125 194.652344 C 233.980469 192.050781 234.351562 189.390625 234.3125 186.671875 C 234.359375 186.222656 234.375 185.773438 234.371094 185.324219 C 234.363281 184.875 234.335938 184.425781 234.28125 183.980469 C 234.226562 183.53125 234.148438 183.089844 234.042969 182.652344 C 233.941406 182.214844 233.8125 181.78125 233.664062 181.359375 C 233.511719 180.933594 233.339844 180.519531 233.144531 180.113281 C 232.949219 179.707031 232.730469 179.316406 232.492188 178.933594 C 232.253906 178.550781 231.996094 178.183594 231.714844 177.832031 C 231.4375 177.476562 231.140625 177.140625 230.824219 176.820312 C 230.507812 176.5 230.175781 176.195312 229.828125 175.910156 C 229.476562 175.628906 229.113281 175.363281 228.734375 175.117188 C 228.359375 174.875 227.96875 174.652344 227.566406 174.449219 C 227.164062 174.246094 226.75 174.066406 226.328125 173.910156 C 225.90625 173.753906 225.476562 173.621094 225.042969 173.511719 C 224.605469 173.402344 224.164062 173.316406 223.71875 173.253906 C 223.269531 173.191406 222.824219 173.15625 222.375 173.140625 C 221.921875 173.128906 221.472656 173.140625 221.023438 173.179688 C 210.617188 173.179688 203.746094 180.625 200.207031 195.023438 L 186.261719 250.605469 C 186.167969 250.992188 186.015625 251.355469 185.800781 251.691406 C 185.582031 252.027344 185.320312 252.320312 185.007812 252.566406 C 184.691406 252.8125 184.347656 253 183.96875 253.128906 C 183.59375 253.257812 183.203125 253.324219 182.804688 253.320312 L 165.445312 253.320312 C 165.171875 253.324219 164.90625 253.292969 164.644531 253.234375 C 164.378906 253.175781 164.125 253.085938 163.882812 252.96875 C 163.640625 252.851562 163.414062 252.710938 163.203125 252.539062 C 162.992188 252.371094 162.800781 252.179688 162.636719 251.96875 C 162.46875 251.753906 162.328125 251.527344 162.214844 251.28125 C 162.097656 251.039062 162.015625 250.78125 161.957031 250.519531 C 161.902344 250.253906 161.875 249.988281 161.882812 249.71875 C 161.886719 249.445312 161.921875 249.179688 161.988281 248.917969 L 164.785156 237.605469 C 164.808594 237.457031 164.789062 237.320312 164.71875 237.1875 C 164.648438 237.058594 164.546875 236.960938 164.414062 236.898438 C 164.277344 236.835938 164.140625 236.820312 163.996094 236.851562 C 163.847656 236.882812 163.730469 236.957031 163.632812 237.070312 C 156.558594 247.191406 147.175781 253.320312 135.78125 253.320312 C 120.722656 253.320312 113.648438 244.640625 113.648438 231.597656 C 113.683594 227.816406 114.136719 224.089844 115.003906 220.410156 L 125.207031 178.691406 C 125.273438 178.429688 125.308594 178.164062 125.3125 177.894531 C 125.320312 177.621094 125.292969 177.355469 125.238281 177.089844 C 125.179688 176.828125 125.097656 176.574219 124.980469 176.328125 C 124.867188 176.082031 124.726562 175.855469 124.558594 175.640625 C 124.394531 175.429688 124.203125 175.238281 123.992188 175.070312 C 123.78125 174.898438 123.554688 174.757812 123.3125 174.640625 C 123.070312 174.523438 122.816406 174.433594 122.550781 174.375 C 122.289062 174.316406 122.023438 174.289062 121.75 174.289062 C 121.109375 174.289062 120.472656 174.226562 119.839844 174.101562 C 119.210938 173.976562 118.597656 173.789062 118.003906 173.542969 C 117.410156 173.296875 116.847656 172.996094 116.3125 172.640625 C 115.777344 172.28125 115.28125 171.875 114.828125 171.421875 C 114.375 170.964844 113.96875 170.472656 113.609375 169.9375 C 113.253906 169.402344 112.953125 168.839844 112.707031 168.246094 C 112.460938 167.652344 112.273438 167.039062 112.148438 166.40625 C 112.023438 165.777344 111.960938 165.140625 111.960938 164.496094 C 111.960938 163.855469 112.023438 163.21875 112.148438 162.585938 C 112.273438 161.957031 112.460938 161.34375 112.707031 160.75 C 112.953125 160.15625 113.253906 159.59375 113.609375 159.058594 C 113.96875 158.523438 114.375 158.027344 114.828125 157.574219 C 115.28125 157.117188 115.777344 156.714844 116.3125 156.355469 C 116.847656 156 117.410156 155.695312 118.003906 155.449219 C 118.597656 155.207031 119.210938 155.019531 119.839844 154.894531 C 120.472656 154.769531 121.109375 154.707031 121.75 154.707031 L 151.742188 154.707031 C 152.015625 154.703125 152.28125 154.734375 152.542969 154.792969 C 152.808594 154.851562 153.0625 154.9375 153.304688 155.054688 C 153.546875 155.175781 153.773438 155.316406 153.984375 155.488281 C 154.195312 155.65625 154.382812 155.847656 154.550781 156.058594 C 154.71875 156.273438 154.859375 156.5 154.972656 156.746094 C 155.085938 156.988281 155.171875 157.242188 155.230469 157.507812 C 155.285156 157.773438 155.3125 158.039062 155.304688 158.308594 C 155.300781 158.578125 155.265625 158.847656 155.199219 159.109375 L 139.566406 220.410156 C 138.628906 223.71875 138.105469 227.089844 138.003906 230.527344 C 138.003906 234.644531 140.058594 235.960938 143.308594 236.699219 C 145.285156 237.152344 160.835938 236.699219 169.433594 218.144531 C 169.539062 217.917969 169.621094 217.6875 169.679688 217.445312 L 179.390625 178.566406 C 179.457031 178.304688 179.492188 178.039062 179.496094 177.769531 C 179.503906 177.5 179.476562 177.230469 179.421875 176.96875 C 179.363281 176.703125 179.277344 176.449219 179.164062 176.203125 C 179.050781 175.960938 178.910156 175.730469 178.742188 175.519531 C 178.574219 175.304688 178.386719 175.117188 178.175781 174.945312 C 177.964844 174.777344 177.738281 174.632812 177.496094 174.515625 C 177.253906 174.398438 177 174.3125 176.734375 174.25 C 176.472656 174.191406 176.203125 174.164062 175.933594 174.164062 L 175.605469 174.164062 C 174.964844 174.164062 174.328125 174.101562 173.695312 173.976562 C 173.066406 173.851562 172.453125 173.664062 171.863281 173.417969 C 171.269531 173.171875 170.703125 172.871094 170.171875 172.511719 C 169.636719 172.15625 169.140625 171.75 168.6875 171.292969 C 168.234375 170.839844 167.828125 170.34375 167.472656 169.8125 C 167.113281 169.277344 166.8125 168.710938 166.566406 168.117188 C 166.320312 167.523438 166.136719 166.914062 166.011719 166.28125 C 165.886719 165.652344 165.824219 165.015625 165.824219 164.375 C 165.824219 163.730469 165.886719 163.09375 166.011719 162.464844 C 166.136719 161.835938 166.320312 161.222656 166.566406 160.628906 C 166.8125 160.035156 167.113281 159.472656 167.472656 158.9375 C 167.828125 158.402344 168.234375 157.910156 168.6875 157.453125 C 169.140625 157 169.636719 156.59375 170.171875 156.234375 C 170.703125 155.878906 171.269531 155.578125 171.863281 155.332031 C 172.453125 155.085938 173.066406 154.898438 173.695312 154.773438 C 174.328125 154.644531 174.964844 154.582031 175.605469 154.582031 L 201.523438 154.582031 C 201.78125 154.585938 202.03125 154.613281 202.28125 154.671875 C 202.527344 154.730469 202.769531 154.8125 203 154.921875 C 203.230469 155.03125 203.445312 155.160156 203.648438 155.316406 C 203.851562 155.472656 204.035156 155.648438 204.199219 155.84375 C 204.363281 156.039062 204.503906 156.25 204.621094 156.476562 C 204.742188 156.703125 204.835938 156.9375 204.902344 157.183594 C 204.96875 157.429688 205.007812 157.679688 205.023438 157.9375 C 205.035156 158.191406 205.023438 158.445312 204.980469 158.695312 L 204.527344 160.710938 C 204.441406 161.085938 204.414062 161.464844 204.449219 161.84375 C 204.484375 162.226562 204.578125 162.59375 204.734375 162.945312 C 204.886719 163.296875 205.09375 163.613281 205.351562 163.898438 C 205.609375 164.179688 205.902344 164.417969 206.238281 164.605469 C 206.570312 164.792969 206.925781 164.921875 207.304688 164.996094 C 207.679688 165.066406 208.058594 165.078125 208.4375 165.027344 C 208.820312 164.976562 209.179688 164.867188 209.523438 164.699219 C 209.871094 164.53125 210.179688 164.3125 210.453125 164.042969 C 211.953125 162.371094 213.601562 160.851562 215.398438 159.492188 C 217.191406 158.132812 219.097656 156.957031 221.117188 155.964844 C 223.136719 154.96875 225.230469 154.175781 227.402344 153.585938 C 229.574219 152.992188 231.78125 152.613281 234.027344 152.441406 C 247.972656 152.441406 259.492188 162.359375 259.492188 181.242188 C 259.472656 186.738281 258.664062 192.113281 257.066406 197.371094 L 249.988281 222.792969 C 249.34375 225.039062 248.972656 227.332031 248.878906 229.664062 C 248.878906 234.109375 250.648438 236.289062 253.980469 236.289062 C 257.3125 236.289062 260.316406 235.011719 264.429688 225.675781 C 264.566406 225.363281 264.734375 225.070312 264.929688 224.789062 C 265.125 224.511719 265.347656 224.253906 265.589844 224.015625 C 265.835938 223.78125 266.097656 223.566406 266.382812 223.382812 C 266.667969 223.195312 266.96875 223.039062 267.285156 222.910156 C 267.597656 222.78125 267.921875 222.683594 268.257812 222.613281 C 268.589844 222.546875 268.929688 222.511719 269.269531 222.511719 C 269.609375 222.507812 269.945312 222.535156 270.28125 222.597656 C 270.617188 222.660156 270.941406 222.753906 271.257812 222.875 C 271.589844 223 271.90625 223.15625 272.207031 223.339844 C 272.503906 223.527344 272.785156 223.738281 273.042969 223.980469 C 273.304688 224.21875 273.535156 224.480469 273.746094 224.765625 C 273.953125 225.050781 274.128906 225.355469 274.277344 225.675781 C 274.429688 225.996094 274.542969 226.328125 274.628906 226.671875 C 274.710938 227.011719 274.761719 227.359375 274.777344 227.714844 C 274.792969 228.066406 274.777344 228.417969 274.722656 228.765625 C 274.671875 229.113281 274.585938 229.457031 274.46875 229.789062 Z M 274.46875 229.789062 " fill-opacity="1" fill-rule="nonzero"/><path fill="#ffffff" d="M 281.707031 72.300781 L 93.117188 72.300781 C 92.433594 72.300781 91.75 72.332031 91.070312 72.402344 C 90.386719 72.46875 89.710938 72.566406 89.039062 72.703125 C 88.367188 72.835938 87.707031 73 87.050781 73.199219 C 86.394531 73.398438 85.75 73.628906 85.121094 73.890625 C 84.488281 74.152344 83.867188 74.445312 83.265625 74.769531 C 82.660156 75.089844 82.074219 75.441406 81.507812 75.820312 C 80.9375 76.203125 80.386719 76.609375 79.859375 77.042969 C 79.328125 77.476562 78.824219 77.9375 78.339844 78.421875 C 77.855469 78.90625 77.394531 79.410156 76.960938 79.941406 C 76.527344 80.46875 76.121094 81.019531 75.738281 81.589844 C 75.359375 82.15625 75.007812 82.742188 74.683594 83.347656 C 74.363281 83.953125 74.070312 84.570312 73.808594 85.203125 C 73.546875 85.835938 73.316406 86.476562 73.117188 87.132812 C 72.917969 87.789062 72.753906 88.449219 72.621094 89.121094 C 72.484375 89.792969 72.386719 90.46875 72.320312 91.152344 C 72.25 91.832031 72.21875 92.515625 72.21875 93.199219 L 72.21875 281.789062 C 72.21875 282.476562 72.25 283.160156 72.316406 283.839844 C 72.386719 284.519531 72.484375 285.195312 72.621094 285.867188 C 72.753906 286.539062 72.917969 287.203125 73.117188 287.859375 C 73.316406 288.511719 73.546875 289.15625 73.808594 289.789062 C 74.070312 290.421875 74.363281 291.039062 74.683594 291.644531 C 75.007812 292.246094 75.359375 292.832031 75.738281 293.402344 C 76.121094 293.972656 76.527344 294.519531 76.960938 295.050781 C 77.394531 295.578125 77.855469 296.085938 78.339844 296.570312 C 78.824219 297.054688 79.328125 297.511719 79.859375 297.945312 C 80.386719 298.378906 80.9375 298.789062 81.507812 299.167969 C 82.074219 299.546875 82.660156 299.898438 83.265625 300.222656 C 83.867188 300.546875 84.488281 300.835938 85.121094 301.101562 C 85.75 301.363281 86.394531 301.59375 87.050781 301.789062 C 87.707031 301.988281 88.367188 302.15625 89.039062 302.289062 C 89.710938 302.421875 90.386719 302.523438 91.070312 302.589844 C 91.75 302.65625 92.433594 302.691406 93.117188 302.691406 L 281.707031 302.691406 C 282.394531 302.691406 283.074219 302.65625 283.757812 302.589844 C 284.4375 302.523438 285.113281 302.421875 285.785156 302.289062 C 286.457031 302.15625 287.121094 301.988281 287.777344 301.789062 C 288.429688 301.59375 289.074219 301.363281 289.707031 301.101562 C 290.339844 300.835938 290.957031 300.546875 291.5625 300.222656 C 292.164062 299.898438 292.75 299.546875 293.320312 299.167969 C 293.890625 298.789062 294.4375 298.382812 294.96875 297.945312 C 295.496094 297.511719 296.003906 297.054688 296.488281 296.570312 C 296.972656 296.085938 297.429688 295.578125 297.863281 295.050781 C 298.296875 294.519531 298.707031 293.972656 299.085938 293.402344 C 299.464844 292.832031 299.816406 292.246094 300.140625 291.644531 C 300.464844 291.039062 300.753906 290.421875 301.015625 289.789062 C 301.28125 289.15625 301.507812 288.511719 301.707031 287.859375 C 301.90625 287.203125 302.074219 286.539062 302.207031 285.867188 C 302.339844 285.195312 302.441406 284.519531 302.507812 283.839844 C 302.574219 283.160156 302.609375 282.476562 302.609375 281.789062 L 302.609375 93.199219 C 302.609375 92.515625 302.574219 91.832031 302.507812 91.152344 C 302.441406 90.46875 302.339844 89.792969 302.207031 89.121094 C 302.074219 88.449219 301.90625 87.789062 301.707031 87.132812 C 301.507812 86.476562 301.28125 85.835938 301.015625 85.203125 C 300.753906 84.570312 300.464844 83.953125 300.140625 83.347656 C 299.816406 82.742188 299.464844 82.15625 299.085938 81.589844 C 298.707031 81.019531 298.296875 80.46875 297.863281 79.941406 C 297.429688 79.410156 296.972656 78.90625 296.488281 78.421875 C 296.003906 77.9375 295.496094 77.476562 294.96875 77.042969 C 294.4375 76.609375 293.890625 76.203125 293.320312 75.820312 C 292.75 75.441406 292.164062 75.089844 291.5625 74.769531 C 290.957031 74.445312 290.339844 74.152344 289.707031 73.890625 C 289.074219 73.628906 288.429688 73.398438 287.777344 73.199219 C 287.121094 73 286.457031 72.835938 285.785156 72.703125 C 285.113281 72.566406 284.4375 72.46875 283.757812 72.402344 C 283.074219 72.332031 282.394531 72.300781 281.707031 72.300781 Z M 146.230469 111.382812 C 147.199219 111.398438 148.15625 111.511719 149.105469 111.714844 C 150.050781 111.917969 150.96875 112.214844 151.859375 112.597656 C 152.75 112.980469 153.59375 113.449219 154.390625 114 C 155.1875 114.550781 155.925781 115.171875 156.601562 115.867188 C 157.277344 116.5625 157.878906 117.316406 158.40625 118.128906 C 158.933594 118.941406 159.378906 119.796875 159.738281 120.695312 C 160.097656 121.597656 160.367188 122.523438 160.542969 123.472656 C 160.722656 124.425781 160.804688 125.386719 160.792969 126.355469 C 160.78125 127.324219 160.679688 128.285156 160.480469 129.234375 C 160.28125 130.179688 159.992188 131.101562 159.613281 131.992188 C 159.230469 132.882812 158.769531 133.730469 158.222656 134.53125 C 157.679688 135.332031 157.0625 136.074219 156.371094 136.75 C 155.679688 137.429688 154.929688 138.039062 154.117188 138.570312 C 153.308594 139.101562 152.457031 139.550781 151.558594 139.914062 C 150.660156 140.28125 149.734375 140.554688 148.785156 140.738281 C 147.832031 140.917969 146.871094 141.007812 145.902344 141.003906 C 144.933594 141 143.976562 140.898438 143.023438 140.707031 C 142.074219 140.511719 141.152344 140.226562 140.261719 139.851562 C 139.367188 139.480469 138.519531 139.019531 137.714844 138.480469 C 136.910156 137.9375 136.167969 137.324219 135.484375 136.636719 C 134.800781 135.949219 134.191406 135.203125 133.652344 134.398438 C 133.117188 133.589844 132.664062 132.738281 132.292969 131.84375 C 131.921875 130.949219 131.644531 130.023438 131.457031 129.074219 C 131.265625 128.125 131.171875 127.164062 131.171875 126.195312 C 131.179688 125.214844 131.28125 124.242188 131.476562 123.28125 C 131.675781 122.320312 131.964844 121.386719 132.347656 120.484375 C 132.726562 119.578125 133.195312 118.71875 133.746094 117.910156 C 134.296875 117.097656 134.921875 116.347656 135.621094 115.660156 C 136.320312 114.96875 137.082031 114.355469 137.902344 113.820312 C 138.722656 113.28125 139.589844 112.828125 140.5 112.460938 C 141.410156 112.09375 142.347656 111.820312 143.3125 111.640625 C 144.277344 111.457031 145.25 111.375 146.230469 111.382812 Z M 274.46875 229.789062 C 268.542969 246.246094 258.792969 253.320312 246.902344 253.320312 C 231.640625 253.320312 224.316406 244.269531 224.316406 231.84375 C 224.308594 228.082031 224.828125 224.390625 225.878906 220.777344 L 233.203125 194.652344 C 233.980469 192.050781 234.351562 189.390625 234.3125 186.671875 C 234.359375 186.222656 234.375 185.773438 234.371094 185.324219 C 234.363281 184.875 234.335938 184.425781 234.28125 183.980469 C 234.226562 183.53125 234.148438 183.089844 234.042969 182.652344 C 233.941406 182.214844 233.8125 181.78125 233.664062 181.359375 C 233.511719 180.933594 233.339844 180.519531 233.144531 180.113281 C 232.949219 179.707031 232.730469 179.316406 232.492188 178.933594 C 232.253906 178.550781 231.996094 178.183594 231.714844 177.832031 C 231.4375 177.476562 231.140625 177.140625 230.824219 176.820312 C 230.507812 176.5 230.175781 176.195312 229.828125 175.910156 C 229.476562 175.628906 229.113281 175.363281 228.734375 175.117188 C 228.359375 174.875 227.96875 174.652344 227.566406 174.449219 C 227.164062 174.246094 226.75 174.066406 226.328125 173.910156 C 225.90625 173.753906 225.476562 173.621094 225.042969 173.511719 C 224.605469 173.402344 224.164062 173.316406 223.71875 173.253906 C 223.269531 173.191406 222.824219 173.15625 222.375 173.140625 C 221.921875 173.128906 221.472656 173.140625 221.023438 173.179688 C 210.617188 173.179688 203.746094 180.625 200.207031 195.023438 L 186.261719 250.605469 C 186.167969 250.992188 186.015625 251.355469 185.800781 251.691406 C 185.582031 252.027344 185.320312 252.320312 185.007812 252.566406 C 184.691406 252.8125 184.347656 253 183.96875 253.128906 C 183.59375 253.257812 183.203125 253.324219 182.804688 253.320312 L 165.445312 253.320312 C 165.171875 253.324219 164.90625 253.292969 164.644531 253.234375 C 164.378906 253.175781 164.125 253.085938 163.882812 252.96875 C 163.640625 252.851562 163.414062 252.710938 163.203125 252.539062 C 162.992188 252.371094 162.800781 252.179688 162.636719 251.96875 C 162.46875 251.753906 162.328125 251.527344 162.214844 251.28125 C 162.097656 251.039062 162.015625 250.78125 161.957031 250.519531 C 161.902344 250.253906 161.875 249.988281 161.882812 249.71875 C 161.886719 249.445312 161.921875 249.179688 161.988281 248.917969 L 164.785156 237.605469 C 164.808594 237.457031 164.789062 237.320312 164.71875 237.1875 C 164.648438 237.058594 164.546875 236.960938 164.414062 236.898438 C 164.277344 236.835938 164.140625 236.820312 163.996094 236.851562 C 163.847656 236.882812 163.730469 236.957031 163.632812 237.070312 C 156.558594 247.191406 147.175781 253.320312 135.78125 253.320312 C 120.722656 253.320312 113.648438 244.640625 113.648438 231.597656 C 113.683594 227.816406 114.136719 224.089844 115.003906 220.410156 L 125.207031 178.691406 C 125.273438 178.429688 125.308594 178.164062 125.3125 177.894531 C 125.320312 177.621094 125.292969 177.355469 125.238281 177.089844 C 125.179688 176.828125 125.097656 176.574219 124.980469 176.328125 C 124.867188 176.082031 124.726562 175.855469 124.558594 175.640625 C 124.394531 175.429688 124.203125 175.238281 123.992188 175.070312 C 123.78125 174.898438 123.554688 174.757812 123.3125 174.640625 C 123.070312 174.523438 122.816406 174.433594 122.550781 174.375 C 122.289062 174.316406 122.023438 174.289062 121.75 174.289062 C 121.109375 174.289062 120.472656 174.226562 119.839844 174.101562 C 119.210938 173.976562 118.597656 173.789062 118.003906 173.542969 C 117.410156 173.296875 116.847656 172.996094 116.3125 172.640625 C 115.777344 172.28125 115.28125 171.875 114.828125 171.421875 C 114.375 170.964844 113.96875 170.472656 113.609375 169.9375 C 113.253906 169.402344 112.953125 168.839844 112.707031 168.246094 C 112.460938 167.652344 112.273438 167.039062 112.148438 166.40625 C 112.023438 165.777344 111.960938 165.140625 111.960938 164.496094 C 111.960938 163.855469 112.023438 163.21875 112.148438 162.585938 C 112.273438 161.957031 112.460938 161.34375 112.707031 160.75 C 112.953125 160.15625 113.253906 159.59375 113.609375 159.058594 C 113.96875 158.523438 114.375 158.027344 114.828125 157.574219 C 115.28125 157.117188 115.777344 156.714844 116.3125 156.355469 C 116.847656 156 117.410156 155.695312 118.003906 155.449219 C 118.597656 155.207031 119.210938 155.019531 119.839844 154.894531 C 120.472656 154.769531 121.109375 154.707031 121.75 154.707031 L 151.742188 154.707031 C 152.015625 154.703125 152.28125 154.734375 152.542969 154.792969 C 152.808594 154.851562 153.0625 154.9375 153.304688 155.054688 C 153.546875 155.175781 153.773438 155.316406 153.984375 155.488281 C 154.195312 155.65625 154.382812 155.847656 154.550781 156.058594 C 154.71875 156.273438 154.859375 156.5 154.972656 156.746094 C 155.085938 156.988281 155.171875 157.242188 155.230469 157.507812 C 155.285156 157.773438 155.3125 158.039062 155.304688 158.308594 C 155.300781 158.578125 155.265625 158.847656 155.199219 159.109375 L 139.566406 220.410156 C 138.628906 223.71875 138.105469 227.089844 138.003906 230.527344 C 138.003906 234.644531 140.058594 235.960938 143.308594 236.699219 C 145.285156 237.152344 160.835938 236.699219 169.433594 218.144531 C 169.539062 217.917969 169.621094 217.6875 169.679688 217.445312 L 179.390625 178.566406 C 179.457031 178.304688 179.492188 178.039062 179.496094 177.769531 C 179.503906 177.5 179.476562 177.230469 179.421875 176.96875 C 179.363281 176.703125 179.277344 176.449219 179.164062 176.203125 C 179.050781 175.960938 178.910156 175.730469 178.742188 175.519531 C 178.574219 175.304688 178.386719 175.117188 178.175781 174.945312 C 177.964844 174.777344 177.738281 174.632812 177.496094 174.515625 C 177.253906 174.398438 177 174.3125 176.734375 174.25 C 176.472656 174.191406 176.203125 174.164062 175.933594 174.164062 L 175.605469 174.164062 C 174.964844 174.164062 174.328125 174.101562 173.695312 173.976562 C 173.066406 173.851562 172.453125 173.664062 171.863281 173.417969 C 171.269531 173.171875 170.703125 172.871094 170.171875 172.511719 C 169.636719 172.15625 169.140625 171.75 168.6875 171.292969 C 168.234375 170.839844 167.828125 170.34375 167.472656 169.8125 C 167.113281 169.277344 166.8125 168.710938 166.566406 168.117188 C 166.320312 167.523438 166.136719 166.914062 166.011719 166.28125 C 165.886719 165.652344 165.824219 165.015625 165.824219 164.375 C 165.824219 163.730469 165.886719 163.09375 166.011719 162.464844 C 166.136719 161.835938 166.320312 161.222656 166.566406 160.628906 C 166.8125 160.035156 167.113281 159.472656 167.472656 158.9375 C 167.828125 158.402344 168.234375 157.910156 168.6875 157.453125 C 169.140625 157 169.636719 156.59375 170.171875 156.234375 C 170.703125 155.878906 171.269531 155.578125 171.863281 155.332031 C 172.453125 155.085938 173.066406 154.898438 173.695312 154.773438 C 174.328125 154.644531 174.964844 154.582031 175.605469 154.582031 L 201.523438 154.582031 C 201.78125 154.585938 202.03125 154.613281 202.28125 154.671875 C 202.527344 154.730469 202.769531 154.8125 203 154.921875 C 203.230469 155.03125 203.445312 155.160156 203.648438 155.316406 C 203.851562 155.472656 204.035156 155.648438 204.199219 155.84375 C 204.363281 156.039062 204.503906 156.25 204.621094 156.476562 C 204.742188 156.703125 204.835938 156.9375 204.902344 157.183594 C 204.96875 157.429688 205.007812 157.679688 205.023438 157.9375 C 205.035156 158.191406 205.023438 158.445312 204.980469 158.695312 L 204.527344 160.710938 C 204.441406 161.085938 204.414062 161.464844 204.449219 161.84375 C 204.484375 162.226562 204.578125 162.59375 204.734375 162.945312 C 204.886719 163.296875 205.09375 163.613281 205.351562 163.898438 C 205.609375 164.179688 205.902344 164.417969 206.238281 164.605469 C 206.570312 164.792969 206.925781 164.921875 207.304688 164.996094 C 207.679688 165.066406 208.058594 165.078125 208.4375 165.027344 C 208.820312 164.976562 209.179688 164.867188 209.523438 164.699219 C 209.871094 164.53125 210.179688 164.3125 210.453125 164.042969 C 211.953125 162.371094 213.601562 160.851562 215.398438 159.492188 C 217.191406 158.132812 219.097656 156.957031 221.117188 155.964844 C 223.136719 154.96875 225.230469 154.175781 227.402344 153.585938 C 229.574219 152.992188 231.78125 152.613281 234.027344 152.441406 C 247.972656 152.441406 259.492188 162.359375 259.492188 181.242188 C 259.472656 186.738281 258.664062 192.113281 257.066406 197.371094 L 249.988281 222.792969 C 249.34375 225.039062 248.972656 227.332031 248.878906 229.664062 C 248.878906 234.109375 250.648438 236.289062 253.980469 236.289062 C 257.3125 236.289062 260.316406 235.011719 264.429688 225.675781 C 264.566406 225.363281 264.734375 225.070312 264.929688 224.789062 C 265.125 224.511719 265.347656 224.253906 265.589844 224.015625 C 265.835938 223.78125 266.097656 223.566406 266.382812 223.382812 C 266.667969 223.195312 266.96875 223.039062 267.285156 222.910156 C 267.597656 222.78125 267.921875 222.683594 268.257812 222.613281 C 268.589844 222.546875 268.929688 222.511719 269.269531 222.511719 C 269.609375 222.507812 269.945312 222.535156 270.28125 222.597656 C 270.617188 222.660156 270.941406 222.753906 271.257812 222.875 C 271.589844 223 271.90625 223.15625 272.207031 223.339844 C 272.503906 223.527344 272.785156 223.738281 273.042969 223.980469 C 273.304688 224.21875 273.535156 224.480469 273.746094 224.765625 C 273.953125 225.050781 274.128906 225.355469 274.277344 225.675781 C 274.429688 225.996094 274.542969 226.328125 274.628906 226.671875 C 274.710938 227.011719 274.761719 227.359375 274.777344 227.714844 C 274.792969 228.066406 274.777344 228.417969 274.722656 228.765625 C 274.671875 229.113281 274.585938 229.457031 274.46875 229.789062 Z M 274.46875 229.789062 " fill-opacity="1" fill-rule="nonzero"/></g></svg>