<svg xmlns="http://www.w3.org/2000/svg" xmlns:xlink="http://www.w3.org/1999/xlink" width="500" zoomAndPan="magnify" viewBox="0 0 375 374.999991" height="500" preserveAspectRatio="xMidYMid meet" version="1.0"><defs><clipPath id="8b48fa08f7"><path d="M 64.105469 64.285156 L 310.851562 64.285156 L 310.851562 311.035156 L 64.105469 311.035156 Z M 64.105469 64.285156 " clip-rule="nonzero"/></clipPath><clipPath id="1d9b67392f"><path d="M 162.078125 212.710938 L 291.828125 212.710938 L 291.828125 295.210938 L 162.078125 295.210938 Z M 162.078125 212.710938 " clip-rule="nonzero"/></clipPath></defs><g clip-path="url(#8b48fa08f7)"><path fill="#040606" d="M 302.628906 298.699219 C 302.628906 300.964844 300.78125 302.8125 298.515625 302.8125 L 158.691406 302.8125 C 156.425781 302.8125 154.578125 300.964844 154.578125 298.699219 L 154.578125 208.222656 C 154.578125 205.960938 156.425781 204.113281 158.691406 204.113281 L 298.515625 204.113281 C 300.78125 204.113281 302.628906 205.960938 302.628906 208.222656 Z M 72.328125 249.347656 L 72.328125 212.820312 C 86.480469 222.714844 116.8125 227.886719 146.355469 228.675781 L 146.355469 269.75 C 100.410156 268.5 72.328125 257.238281 72.328125 249.347656 Z M 72.328125 159.277344 C 87.445312 169.847656 121.148438 175.324219 154.578125 175.324219 C 188.007812 175.324219 221.726562 169.847656 236.828125 159.277344 L 236.828125 195.886719 L 158.691406 195.886719 C 151.878906 195.886719 146.355469 201.414062 146.355469 208.222656 L 146.355469 220.417969 C 100.410156 219.164062 72.328125 207.886719 72.328125 200 Z M 72.328125 105.8125 C 87.445312 116.382812 121.148438 121.863281 154.578125 121.863281 C 188.007812 121.863281 221.726562 116.382812 236.828125 105.8125 L 236.828125 146.535156 C 236.828125 154.921875 204.796875 167.097656 154.578125 167.097656 C 104.378906 167.097656 72.328125 154.921875 72.328125 146.535156 Z M 154.578125 72.511719 C 204.796875 72.511719 236.828125 84.6875 236.828125 93.074219 C 236.828125 101.460938 204.796875 113.636719 154.578125 113.636719 C 104.378906 113.636719 72.328125 101.460938 72.328125 93.074219 C 72.328125 84.6875 104.378906 72.511719 154.578125 72.511719 Z M 298.515625 195.886719 L 245.054688 195.886719 L 245.054688 93.074219 C 245.054688 74.183594 199.542969 64.285156 154.578125 64.285156 C 109.613281 64.285156 64.105469 74.183594 64.105469 93.074219 L 64.105469 249.347656 C 64.105469 266.890625 104.828125 276.882812 146.355469 278.007812 L 146.355469 298.699219 C 146.355469 305.511719 151.878906 311.035156 158.691406 311.035156 L 298.515625 311.035156 C 305.328125 311.035156 310.855469 305.511719 310.855469 298.699219 L 310.855469 208.222656 C 310.855469 201.414062 305.328125 195.886719 298.515625 195.886719 " fill-opacity="1" fill-rule="nonzero"/></g><path fill="#040606" d="M 235.625 267.003906 C 234.015625 265.398438 231.414062 265.398438 229.808594 267.003906 C 228.203125 268.609375 228.203125 271.214844 229.808594 272.820312 L 230.707031 273.71875 C 230.035156 273.894531 229.328125 274.023438 228.605469 274.023438 C 224.074219 274.023438 220.378906 270.328125 220.378906 265.800781 L 220.378906 241.125 C 220.378906 236.59375 224.074219 232.898438 228.605469 232.898438 C 233.132812 232.898438 236.828125 236.59375 236.828125 241.125 L 236.828125 265.800781 C 236.828125 266.523438 236.699219 267.230469 236.523438 267.902344 Z M 228.605469 224.675781 C 219.527344 224.675781 212.152344 232.046875 212.152344 241.125 L 212.152344 265.800781 C 212.152344 274.875 219.527344 282.25 228.605469 282.25 C 231.640625 282.25 234.46875 281.367188 236.910156 279.921875 L 238.035156 281.042969 C 238.835938 281.847656 239.878906 282.25 240.941406 282.25 C 242 282.25 243.046875 281.847656 243.847656 281.042969 C 245.457031 279.4375 245.457031 276.835938 243.847656 275.230469 L 242.722656 274.105469 C 244.171875 271.664062 245.054688 268.835938 245.054688 265.800781 L 245.054688 241.125 C 245.054688 232.046875 237.679688 224.675781 228.605469 224.675781 " fill-opacity="1" fill-rule="nonzero"/><path fill="#040606" d="M 187.480469 232.898438 C 192.007812 232.898438 195.703125 236.59375 195.703125 241.125 C 195.703125 243.390625 197.550781 245.238281 199.816406 245.238281 C 202.082031 245.238281 203.929688 243.390625 203.929688 241.125 C 203.929688 232.046875 196.554688 224.675781 187.480469 224.675781 C 178.402344 224.675781 171.027344 232.046875 171.027344 241.125 C 171.027344 250.199219 178.402344 257.574219 187.480469 257.574219 C 192.007812 257.574219 195.703125 261.269531 195.703125 265.800781 C 195.703125 270.328125 192.007812 274.023438 187.480469 274.023438 C 182.949219 274.023438 179.253906 270.328125 179.253906 265.800781 C 179.253906 263.535156 177.40625 261.6875 175.140625 261.6875 C 172.875 261.6875 171.027344 263.535156 171.027344 265.800781 C 171.027344 274.875 178.402344 282.25 187.480469 282.25 C 196.554688 282.25 203.929688 274.875 203.929688 265.800781 C 203.929688 256.722656 196.554688 249.347656 187.480469 249.347656 C 182.949219 249.347656 179.253906 245.65625 179.253906 241.125 C 179.253906 236.59375 182.949219 232.898438 187.480469 232.898438 " fill-opacity="1" fill-rule="nonzero"/><path fill="#040606" d="M 282.066406 274.023438 L 261.503906 274.023438 L 261.503906 228.785156 C 261.503906 226.523438 259.65625 224.675781 257.390625 224.675781 C 255.125 224.675781 253.277344 226.523438 253.277344 228.785156 L 253.277344 278.136719 C 253.277344 280.402344 255.125 282.25 257.390625 282.25 L 282.066406 282.25 C 284.332031 282.25 286.179688 280.402344 286.179688 278.136719 C 286.179688 275.871094 284.332031 274.023438 282.066406 274.023438 " fill-opacity="1" fill-rule="nonzero"/><g clip-path="url(#1d9b67392f)"><path fill="#040606" d="M 302.757812 298.894531 C 302.757812 301.160156 300.910156 303.007812 298.644531 303.007812 L 158.820312 303.007812 C 156.554688 303.007812 154.707031 301.160156 154.707031 298.894531 L 154.707031 208.421875 C 154.707031 206.15625 156.554688 204.308594 158.820312 204.308594 L 298.644531 204.308594 C 300.910156 204.308594 302.757812 206.15625 302.757812 208.421875 Z M 72.457031 249.546875 L 72.457031 213.015625 C 86.609375 222.910156 116.941406 228.082031 146.484375 228.871094 L 146.484375 269.949219 C 100.539062 268.695312 72.457031 257.433594 72.457031 249.546875 Z M 72.457031 159.472656 C 87.574219 170.042969 121.277344 175.519531 154.707031 175.519531 C 188.136719 175.519531 221.859375 170.042969 236.957031 159.472656 L 236.957031 196.082031 L 158.820312 196.082031 C 152.007812 196.082031 146.484375 201.609375 146.484375 208.421875 L 146.484375 220.613281 C 100.539062 219.359375 72.457031 208.082031 72.457031 200.195312 Z M 72.457031 106.011719 C 87.574219 116.582031 121.277344 122.058594 154.707031 122.058594 C 188.136719 122.058594 221.859375 116.582031 236.957031 106.011719 L 236.957031 146.734375 C 236.957031 155.121094 204.925781 167.296875 154.707031 167.296875 C 104.507812 167.296875 72.457031 155.121094 72.457031 146.734375 Z M 154.707031 72.707031 C 204.925781 72.707031 236.957031 84.886719 236.957031 93.269531 C 236.957031 101.65625 204.925781 113.832031 154.707031 113.832031 C 104.507812 113.832031 72.457031 101.65625 72.457031 93.269531 C 72.457031 84.886719 104.507812 72.707031 154.707031 72.707031 Z M 298.644531 196.082031 L 245.183594 196.082031 L 245.183594 93.269531 C 245.183594 74.378906 199.671875 64.484375 154.707031 64.484375 C 109.742188 64.484375 64.234375 74.378906 64.234375 93.269531 L 64.234375 249.546875 C 64.234375 267.089844 104.957031 277.082031 146.484375 278.203125 L 146.484375 298.894531 C 146.484375 305.707031 152.007812 311.234375 158.820312 311.234375 L 298.644531 311.234375 C 305.457031 311.234375 310.984375 305.707031 310.984375 298.894531 L 310.984375 208.421875 C 310.984375 201.609375 305.457031 196.082031 298.644531 196.082031 " fill-opacity="1" fill-rule="nonzero"/></g><path fill="#040606" d="M 235.753906 267.199219 C 234.148438 265.59375 231.542969 265.59375 229.9375 267.199219 C 228.332031 268.808594 228.332031 271.410156 229.9375 273.015625 L 230.835938 273.914062 C 230.164062 274.09375 229.457031 274.222656 228.734375 274.222656 C 224.203125 274.222656 220.507812 270.527344 220.507812 265.996094 L 220.507812 241.320312 C 220.507812 236.789062 224.203125 233.097656 228.734375 233.097656 C 233.261719 233.097656 236.957031 236.789062 236.957031 241.320312 L 236.957031 265.996094 C 236.957031 266.71875 236.828125 267.425781 236.652344 268.101562 Z M 228.734375 224.871094 C 219.65625 224.871094 212.28125 232.246094 212.28125 241.320312 L 212.28125 265.996094 C 212.28125 275.074219 219.65625 282.445312 228.734375 282.445312 C 231.769531 282.445312 234.597656 281.5625 237.039062 280.117188 L 238.164062 281.242188 C 238.964844 282.042969 240.011719 282.445312 241.070312 282.445312 C 242.132812 282.445312 243.175781 282.042969 243.976562 281.242188 C 245.585938 279.632812 245.585938 277.03125 243.976562 275.425781 L 242.855469 274.300781 C 244.300781 271.859375 245.183594 269.03125 245.183594 265.996094 L 245.183594 241.320312 C 245.183594 232.246094 237.808594 224.871094 228.734375 224.871094 " fill-opacity="1" fill-rule="nonzero"/><path fill="#040606" d="M 187.609375 233.097656 C 192.136719 233.097656 195.832031 236.789062 195.832031 241.320312 C 195.832031 243.585938 197.679688 245.433594 199.945312 245.433594 C 202.210938 245.433594 204.058594 243.585938 204.058594 241.320312 C 204.058594 232.246094 196.683594 224.871094 187.609375 224.871094 C 178.53125 224.871094 171.15625 232.246094 171.15625 241.320312 C 171.15625 250.398438 178.53125 257.769531 187.609375 257.769531 C 192.136719 257.769531 195.832031 261.464844 195.832031 265.996094 C 195.832031 270.527344 192.136719 274.222656 187.609375 274.222656 C 183.078125 274.222656 179.382812 270.527344 179.382812 265.996094 C 179.382812 263.730469 177.535156 261.882812 175.269531 261.882812 C 173.003906 261.882812 171.15625 263.730469 171.15625 265.996094 C 171.15625 275.074219 178.53125 282.445312 187.609375 282.445312 C 196.683594 282.445312 204.058594 275.074219 204.058594 265.996094 C 204.058594 256.917969 196.683594 249.546875 187.609375 249.546875 C 183.078125 249.546875 179.382812 245.851562 179.382812 241.320312 C 179.382812 236.789062 183.078125 233.097656 187.609375 233.097656 " fill-opacity="1" fill-rule="nonzero"/><path fill="#040606" d="M 282.195312 274.222656 L 261.632812 274.222656 L 261.632812 228.984375 C 261.632812 226.71875 259.785156 224.871094 257.519531 224.871094 C 255.253906 224.871094 253.40625 226.71875 253.40625 228.984375 L 253.40625 278.332031 C 253.40625 280.597656 255.253906 282.445312 257.519531 282.445312 L 282.195312 282.445312 C 284.460938 282.445312 286.308594 280.597656 286.308594 278.332031 C 286.308594 276.070312 284.460938 274.222656 282.195312 274.222656 " fill-opacity="1" fill-rule="nonzero"/></svg>